<?xml version="1.0" standalone="no"?>
<!DOCTYPE svg PUBLIC "-//W3C//DTD SVG 20010904//EN"
 "http://www.w3.org/TR/2001/REC-SVG-20010904/DTD/svg10.dtd">
<svg version="1.0" xmlns="http://www.w3.org/2000/svg"
 width="1280.000000pt" height="1280.000000pt" viewBox="0 0 1280.000000 1280.000000"
 preserveAspectRatio="xMidYMid meet">
<metadata>
Created by potrace 1.11, written by Peter Selinger 2001-2013
</metadata>
<g transform="translate(0.000000,1280.000000) scale(0.100000,-0.100000)"
fill="#000000" stroke="none">
<path d="M6145 11068 c22 -6 43 -16 47 -22 5 -8 11 -7 19 1 19 19 6 26 -53 29
l-53 3 40 -11z"/>
<path d="M5925 11043 c-38 -7 -92 -15 -120 -18 -57 -5 -190 -32 -220 -45 -11
-5 -31 -12 -45 -16 -32 -9 -150 -102 -150 -118 0 -7 -9 -21 -21 -32 -17 -15
-20 -27 -15 -60 l5 -41 -59 1 c-32 0 -53 4 -47 8 7 5 0 8 -15 8 -16 0 -28 -3
-28 -8 0 -4 -21 -6 -46 -3 -25 2 -51 -2 -57 -8 -6 -6 -18 -11 -27 -11 -13 0
-13 1 0 10 10 6 -3 8 -40 6 -45 -2 -66 -10 -109 -39 -29 -21 -60 -37 -68 -37
-7 0 -30 -8 -51 -19 -20 -10 -59 -21 -86 -25 -54 -7 -80 -22 -72 -42 5 -12
-22 -45 -123 -157 l-26 -28 28 10 c35 13 34 4 -3 -39 -16 -19 -29 -39 -30 -44
0 -4 -13 -28 -30 -53 -16 -24 -30 -50 -30 -57 0 -8 -12 -21 -26 -31 -14 -9
-35 -37 -46 -61 -11 -25 -26 -48 -34 -51 -8 -3 -14 -9 -14 -15 0 -5 5 -6 11
-2 7 4 10 1 7 -7 -3 -8 -13 -16 -23 -18 -22 -4 -54 -40 -55 -61 0 -8 13 1 30
20 l30 35 -6 -29 c-4 -18 -2 -31 6 -36 9 -5 9 -9 1 -14 -6 -4 -11 -2 -11 3 0
6 -4 11 -10 11 -5 0 -10 -8 -10 -18 0 -10 -13 -30 -29 -44 -15 -14 -37 -44
-47 -67 -11 -22 -25 -41 -33 -41 -11 0 -11 3 -1 15 6 8 10 20 7 27 -3 9 -7 6
-12 -7 -5 -11 -21 -36 -37 -56 -15 -20 -28 -42 -28 -48 0 -6 -4 -11 -10 -11
-5 0 -10 -6 -10 -14 0 -8 -7 -21 -15 -30 -20 -20 -36 -63 -29 -80 4 -10 -2
-16 -18 -18 -13 -2 -24 -11 -26 -23 -2 -11 -10 -27 -18 -36 -9 -9 -12 -24 -8
-34 5 -13 4 -16 -4 -11 -7 4 -12 15 -12 24 -1 9 -7 2 -15 -16 -8 -18 -12 -39
-8 -48 3 -9 -3 -21 -15 -30 -27 -19 -73 -102 -77 -139 -2 -19 -8 -29 -17 -28
-7 2 -19 -9 -26 -25 -6 -15 -36 -72 -66 -127 -31 -55 -55 -110 -56 -122 0 -13
-4 -23 -10 -23 -5 0 -10 -7 -10 -16 0 -9 -6 -30 -14 -47 -7 -18 -19 -51 -25
-73 -6 -23 -18 -45 -26 -48 -8 -3 -15 -14 -15 -25 0 -10 -8 -22 -17 -25 -15
-6 -15 -8 -3 -16 13 -8 11 -12 -7 -25 -13 -9 -23 -25 -23 -36 0 -10 -4 -27 -9
-37 -21 -39 -52 -149 -51 -181 0 -20 -6 -38 -16 -45 -9 -7 -20 -33 -25 -60 -5
-26 -15 -54 -24 -62 -8 -9 -13 -20 -9 -25 3 -6 0 -16 -6 -24 -9 -11 -10 -18
-1 -29 9 -10 8 -16 -4 -26 -10 -8 -12 -16 -6 -19 7 -5 5 -17 -4 -35 -8 -16
-15 -34 -15 -40 0 -6 -9 -29 -20 -50 -12 -24 -17 -49 -13 -66 3 -18 -1 -37
-11 -51 -9 -13 -16 -36 -16 -52 0 -16 -7 -54 -16 -85 -14 -54 -21 -72 -44
-124 -5 -13 -10 -32 -9 -43 1 -33 -7 -69 -21 -95 -7 -13 -14 -40 -15 -60 -2
-19 -11 -66 -20 -105 -9 -38 -19 -79 -21 -90 -18 -99 -25 -130 -42 -195 -10
-41 -27 -111 -36 -155 -10 -44 -22 -92 -28 -106 -5 -14 -8 -30 -7 -35 4 -14
-21 -185 -32 -218 -5 -18 -6 -32 0 -35 11 -7 14 -26 11 -71 -2 -33 -3 -33 -10
-10 -8 24 -8 24 -9 3 -1 -13 -1 -25 -1 -28 0 -3 3 -4 8 -2 4 1 12 -61 18 -138
6 -77 17 -187 24 -245 7 -58 13 -114 12 -125 0 -39 20 -140 29 -146 6 -3 16
-30 24 -60 12 -47 12 -52 0 -35 -8 11 -15 28 -15 37 0 10 -4 20 -8 23 -14 8
-2 -105 15 -149 8 -22 28 -80 45 -130 16 -49 38 -109 49 -132 10 -24 19 -47
19 -52 0 -5 13 -35 29 -67 16 -33 41 -90 56 -129 34 -89 84 -196 100 -215 12
-14 41 -127 37 -143 -1 -4 5 -34 13 -66 8 -33 15 -83 15 -112 0 -38 8 -69 25
-103 17 -34 25 -66 25 -103 0 -37 4 -52 13 -51 8 2 12 -13 11 -55 -1 -46 1
-55 12 -46 14 11 38 3 30 -10 -3 -4 2 -8 10 -8 11 0 14 7 10 21 -26 91 -28
118 -11 163 19 48 35 44 35 -9 0 -19 5 -28 16 -28 8 0 23 -7 31 -16 13 -13 14
-17 3 -24 -10 -6 -8 -13 9 -31 11 -12 21 -33 21 -45 0 -12 11 -29 24 -38 13
-8 27 -29 31 -46 4 -17 19 -46 34 -63 39 -46 60 -81 107 -177 29 -57 60 -102
94 -135 29 -27 63 -69 77 -93 15 -26 32 -42 44 -42 11 0 30 -17 45 -40 31 -47
53 -52 55 -12 1 15 3 20 6 11 2 -10 13 -19 25 -22 19 -5 20 -10 13 -74 -14
-141 -46 -238 -101 -314 -134 -184 -317 -372 -484 -497 -41 -31 -77 -59 -80
-62 -3 -3 -54 -38 -115 -78 -60 -39 -115 -75 -121 -79 -16 -12 -43 -29 -114
-69 -36 -21 -67 -40 -70 -43 -3 -3 -25 -17 -50 -30 -25 -13 -85 -47 -134 -75
-76 -43 -97 -50 -143 -50 l-53 0 0 -158 c0 -89 4 -158 9 -158 26 0 41 15 41
40 0 37 66 118 98 119 17 1 22 7 22 26 0 20 5 25 24 25 17 0 28 9 38 30 11 26
18 30 51 30 32 0 46 7 78 40 25 25 39 34 39 24 0 -11 11 -7 40 16 38 30 40 30
40 10 0 -12 -4 -19 -9 -16 -5 3 -11 -4 -14 -15 -5 -18 -2 -20 16 -15 12 3 29
6 37 6 11 1 10 4 -5 16 -20 15 -20 15 -1 30 31 22 52 17 68 -17 l15 -31 7 49
c10 66 72 123 102 93 16 -16 86 0 92 22 4 18 6 18 24 2 14 -13 21 -15 30 -6 8
8 7 13 -5 18 -40 15 -7 89 43 96 22 3 25 8 25 41 0 32 5 41 28 53 15 8 27 19
27 24 0 18 22 10 27 -10 7 -25 12 -25 45 4 15 14 30 40 33 60 7 35 25 51 25
21 0 -16 30 -35 54 -35 10 0 16 9 16 25 0 14 5 25 10 25 6 0 10 -12 10 -26 0
-14 5 -34 10 -45 12 -21 52 -27 48 -7 -2 7 6 17 18 22 11 5 25 23 30 40 6 21
16 32 32 34 30 5 28 22 -4 22 -22 0 -25 3 -21 28 3 16 11 42 19 58 9 16 13 34
11 40 -2 6 3 17 12 24 13 11 18 10 30 -6 11 -15 17 -17 32 -8 10 7 17 19 15
28 -2 9 4 16 13 16 17 0 21 16 5 22 -10 3 8 67 22 78 3 3 9 23 12 45 3 22 3
32 0 23 -7 -22 -20 -23 -28 -2 -8 21 1 34 24 34 10 0 22 9 25 20 8 24 30 26
39 4 3 -9 3 -51 0 -94 -5 -53 -3 -79 5 -84 6 -4 10 -30 10 -59 -1 -29 -4 -43
-6 -33 -4 17 -8 14 -19 -14 -11 -26 -12 -41 -3 -68 8 -23 8 -37 1 -44 -13 -13
-32 -2 -32 18 0 8 -4 14 -10 14 -11 0 -14 -20 -11 -57 1 -13 -3 -23 -9 -23 -5
0 -10 -8 -10 -17 0 -9 -7 -24 -15 -33 -15 -17 -11 -50 6 -50 14 0 11 -37 -4
-43 -7 -2 -14 -19 -15 -37 -3 -41 -9 -50 -30 -50 -20 0 -44 -53 -35 -77 4 -11
0 -14 -18 -13 -45 4 -49 1 -49 -35 0 -23 -6 -38 -15 -41 -8 -4 -18 -24 -21
-45 -7 -42 -17 -49 -33 -21 -10 16 -10 16 -11 -1 0 -17 -37 -62 -117 -143 -28
-27 -39 -32 -77 -31 -43 2 -44 1 -28 -16 16 -18 16 -20 -1 -32 -9 -6 -17 -17
-17 -24 0 -6 -17 -11 -40 -11 l-40 0 0 -40 c0 -37 -1 -39 -19 -28 -17 10 -23
9 -40 -6 -12 -11 -21 -15 -21 -10 -1 16 -29 -40 -30 -58 0 -10 -4 -18 -9 -18
-15 0 -22 -32 -10 -46 9 -11 7 -14 -10 -14 -11 0 -21 -4 -21 -10 0 -16 -42
-12 -62 7 -17 15 -18 15 -18 -5 0 -19 -5 -22 -42 -21 -24 0 -37 3 -30 6 14 6
16 39 2 48 -5 3 -10 1 -10 -4 0 -6 -8 -29 -17 -51 -19 -43 -16 -42 -121 -41
-41 0 -57 -5 -70 -20 -16 -19 -59 -28 -47 -10 3 5 -4 16 -15 24 -17 12 -27 12
-51 3 -26 -9 -33 -8 -43 7 -15 19 -33 22 -38 7 -2 -7 -17 -5 -41 5 -32 13 -37
19 -31 37 6 21 6 22 -12 4 -14 -15 -19 -16 -22 -5 -6 19 -33 49 -44 49 -4 0
-8 -139 -8 -309 l0 -308 42 -49 c221 -258 602 -532 858 -617 113 -38 317 -92
435 -116 33 -7 78 -17 100 -22 22 -5 96 -16 165 -24 69 -8 159 -21 200 -27 94
-14 590 -19 730 -7 90 8 261 25 690 69 47 5 137 16 200 24 253 34 479 60 750
86 113 11 243 24 290 30 109 13 524 85 570 98 19 6 82 24 140 40 256 71 448
210 596 432 50 76 73 123 100 207 58 181 112 473 139 752 11 119 22 182 33
199 16 25 69 64 131 96 36 18 111 73 122 89 3 4 10 7 15 5 14 -5 85 42 121 79
18 18 39 33 46 33 7 0 42 29 78 64 167 166 252 269 270 327 6 19 12 41 15 49
17 57 34 154 35 200 1 37 7 59 18 68 12 9 13 12 2 10 -8 -2 -16 5 -18 14 -3
13 1 15 19 11 25 -6 60 -38 52 -46 -3 -3 3 -10 14 -16 11 -6 26 -28 32 -48 26
-82 34 -94 57 -88 23 5 27 -2 36 -65 l3 -25 13 25 c10 21 9 36 -5 85 -9 33
-18 74 -18 92 -1 17 -5 35 -9 39 -13 14 -8 54 8 54 8 0 15 -7 15 -15 0 -8 5
-15 10 -15 6 0 10 15 10 33 0 32 0 32 45 29 43 -4 45 -3 45 23 0 26 -2 27 -37
21 -96 -18 -119 -18 -135 -2 -22 22 -31 20 -23 -4 10 -30 -9 -24 -36 12 -13
18 -33 41 -43 51 -19 20 -18 20 8 13 26 -6 37 8 14 17 -10 4 -10 8 1 15 11 8
10 11 -4 19 -14 8 -15 12 -4 18 23 15 63 12 94 -7 50 -30 64 -16 23 22 l-23
21 28 -7 c16 -3 43 -20 60 -35 20 -18 33 -25 36 -17 2 6 -7 20 -20 30 -46 35
-50 40 -45 54 4 9 -5 19 -22 27 -15 6 -31 15 -37 20 -5 4 -26 16 -45 26 -20
11 -36 27 -38 40 -2 11 -9 21 -16 21 -7 0 -23 12 -37 26 -13 14 -33 30 -44 35
-15 7 -11 8 17 5 25 -3 38 0 42 10 3 8 -1 14 -9 14 -8 0 -15 5 -15 10 0 6 10
10 22 10 16 0 19 3 11 11 -14 14 -5 49 13 49 8 0 23 -8 33 -18 56 -50 81 -62
51 -25 -14 18 -33 35 -43 38 -10 4 -17 12 -16 18 4 30 -2 39 -21 34 -11 -3
-20 -1 -20 4 0 5 -7 9 -15 9 -9 0 -35 19 -58 42 -23 23 -46 41 -50 40 -5 -1
-17 9 -28 22 -11 14 -28 28 -39 31 -11 4 -20 12 -20 18 0 7 -16 22 -35 35 -19
12 -35 28 -35 35 0 8 -4 7 -10 -3 -9 -13 -11 -13 -20 0 -5 8 -8 21 -5 28 3 8
-1 20 -9 28 -19 18 -27 18 -20 -1 5 -12 2 -14 -17 -7 -13 5 -29 7 -34 5 -12
-4 -85 62 -85 76 0 4 -11 20 -25 35 l-25 27 6 -31 c9 -41 -6 -38 -55 12 -39
39 -52 68 -31 68 15 0 12 37 -5 54 -19 19 -20 66 -1 66 8 0 14 -11 14 -25 0
-34 26 -62 63 -67 35 -5 37 9 8 46 -16 20 -20 37 -17 71 2 31 -1 45 -9 45 -25
0 -18 253 8 285 12 16 7 97 -8 119 -10 16 -10 23 0 34 9 12 9 16 0 19 -13 5
-18 33 -6 33 3 0 14 -7 24 -16 16 -14 18 -14 29 7 10 18 10 24 -2 33 -8 6 -18
30 -21 53 -6 35 -5 41 8 37 8 -4 15 -12 15 -19 0 -6 9 -20 20 -30 19 -18 20
-17 20 2 0 26 27 38 33 15 4 -14 5 -14 6 -1 0 9 13 22 27 29 20 11 24 20 21
39 -3 14 3 41 14 60 10 20 19 47 19 61 0 14 9 33 20 43 11 9 20 26 20 36 0 11
5 23 11 26 5 4 9 17 8 28 -3 45 1 57 20 57 23 0 36 16 21 25 -15 9 0 58 24 77
l21 18 -24 -3 c-22 -2 -24 2 -25 45 -1 26 4 48 9 48 10 0 11 -4 14 -36 0 -8 6
-12 11 -9 14 9 1 96 -15 110 -7 6 -18 42 -24 80 -6 39 -14 83 -17 99 -6 26 -5
27 13 18 14 -8 23 -8 31 0 7 7 12 -3 18 -37 3 -26 13 -60 21 -74 14 -26 14
-26 8 9 -8 41 -8 32 -6 95 l2 50 19 -35 c11 -19 19 -43 20 -53 0 -10 8 -34 19
-55 27 -54 40 -118 47 -226 5 -79 3 -101 -10 -121 -9 -13 -16 -29 -16 -35 0
-17 20 -11 26 8 3 9 12 32 21 49 20 41 12 180 -16 293 -17 69 -72 211 -91 235
-4 6 -11 26 -15 45 -4 19 -11 40 -15 45 -30 38 -47 227 -26 277 4 9 5 21 2 27
-3 5 6 23 20 40 14 17 20 31 14 31 -10 0 -11 17 -6 66 5 45 3 64 -4 59 -6 -3
-8 -10 -6 -14 8 -13 -26 -164 -40 -178 -18 -18 -27 -16 -21 6 2 11 -3 24 -14
32 -17 12 -18 15 -2 38 15 23 14 25 -3 38 -14 10 -18 26 -18 68 0 30 -3 55 -7
55 -9 0 -16 31 -29 120 -6 40 -13 84 -17 98 -5 21 -3 23 16 17 18 -5 21 -2 21
19 0 28 -9 33 -28 14 -16 -16 -16 31 -1 85 5 20 7 43 2 50 -4 6 -6 20 -4 31 1
10 -2 22 -7 25 -6 4 -13 31 -17 61 -5 49 -7 69 -13 118 -3 20 -19 14 -25 -9
-9 -34 -27 -11 -25 31 1 33 4 38 15 28 11 -9 12 -13 1 -19 -8 -6 -9 -9 -2 -9
23 0 33 27 32 88 0 34 -4 62 -8 62 -8 0 -33 49 -35 70 -1 8 -5 26 -8 40 -4 14
-4 19 -1 13 7 -16 24 -17 24 -2 0 6 -9 24 -21 40 -12 18 -18 37 -14 47 5 14 7
14 16 2 8 -11 8 -8 3 10 -4 14 -13 34 -20 45 -25 36 -15 49 15 19 43 -44 131
-170 131 -188 0 -9 8 -16 18 -16 18 -1 92 -105 92 -131 0 -9 3 -19 7 -23 11
-11 42 -119 37 -128 -3 -4 0 -16 5 -25 10 -17 10 -16 11 2 1 38 13 46 44 30
36 -19 35 -19 29 6 -8 27 17 22 32 -7 6 -11 25 -38 43 -61 17 -22 32 -46 32
-53 0 -6 15 -30 34 -53 31 -39 86 -144 86 -165 0 -5 7 -15 15 -22 8 -7 19 -26
24 -44 30 -99 80 -228 81 -204 0 25 -40 167 -60 213 -5 11 -18 47 -30 79 -11
33 -31 76 -45 96 -14 20 -25 43 -25 52 0 9 -5 20 -10 23 -6 4 -24 34 -41 68
-17 34 -51 90 -75 125 -25 35 -51 78 -58 97 -8 18 -24 43 -35 54 -12 12 -30
37 -40 57 -11 20 -34 52 -52 72 -19 20 -34 43 -36 51 -1 8 -5 17 -10 20 -4 3
-17 23 -27 44 -11 20 -23 37 -27 37 -5 0 -11 15 -14 34 -4 18 -27 57 -51 87
-39 47 -101 143 -113 174 -2 6 -10 18 -19 27 -8 10 -12 24 -9 32 4 9 -4 28
-17 43 -12 16 -28 44 -36 63 -7 19 -17 39 -21 44 -4 5 -5 22 -2 37 3 18 1 29
-6 29 -6 0 -11 7 -11 15 0 8 -7 15 -15 15 -9 0 -19 8 -22 17 -4 9 -16 28 -27
41 -12 13 -24 35 -29 50 -16 55 -29 129 -32 177 -1 28 -3 56 -4 63 0 7 -9 12
-18 10 -12 -2 -19 4 -21 20 -2 12 -7 22 -11 22 -4 0 -13 16 -20 36 -11 30 -11
38 0 45 19 12 49 11 49 -1 0 -19 15 -10 27 15 10 22 9 25 -7 25 -11 0 -22 5
-25 10 -4 6 -11 8 -16 4 -5 -3 -7 -10 -4 -15 4 -5 -7 -9 -23 -9 -29 0 -62 26
-62 48 0 18 11 15 37 -10 31 -29 29 -13 -8 47 -17 28 -28 40 -26 28 3 -13 2
-25 -3 -28 -13 -8 -20 38 -8 52 10 13 9 14 -14 17 -7 1 -12 9 -10 19 2 10 -11
40 -27 68 -17 27 -31 57 -31 67 0 10 -16 42 -35 72 -19 30 -35 61 -35 68 0 21
-61 97 -75 94 -8 -1 -25 22 -42 55 -15 32 -64 103 -108 158 -44 56 -96 127
-115 159 -19 33 -43 67 -52 77 -10 11 -18 22 -18 25 0 9 -67 93 -104 130 -17
17 -51 57 -76 90 -37 48 -183 199 -257 265 -30 28 -59 63 -72 87 -6 12 -17 22
-23 22 -6 0 -20 7 -30 17 -12 10 -18 12 -18 4 0 -19 -20 -2 -31 26 -5 14 -12
24 -14 21 -3 -3 -24 12 -46 33 -25 23 -50 37 -63 36 -15 -1 -20 3 -18 15 2 15
-31 35 -50 30 -9 -2 -116 51 -143 72 -19 15 -18 15 15 16 19 0 55 -11 79 -25
51 -29 58 -31 40 -8 -8 9 -41 28 -74 43 -33 15 -86 39 -117 54 -31 14 -63 26
-70 26 -7 0 -35 12 -63 26 -34 17 -59 23 -79 20 -18 -4 -37 0 -55 12 -33 23
-92 47 -154 63 -26 6 -50 16 -53 20 -3 5 -16 6 -30 3 -16 -4 -31 -1 -43 10
-15 13 -28 16 -57 10 -42 -9 -66 -7 -74 6 -3 4 -27 9 -55 12 -27 3 -66 12 -85
20 -19 9 -52 19 -72 22 -20 4 -38 12 -41 19 -2 7 -20 10 -53 7 -90 -8 -293 -3
-306 7 -9 7 -35 6 -83 -4z m-405 -118 c0 -10 -99 -102 -104 -97 -15 14 -2 33
42 65 44 34 62 43 62 32z m90 -25 c0 -5 -2 -10 -4 -10 -3 0 -8 5 -11 10 -3 6
-1 10 4 10 6 0 11 -4 11 -10z m1635 -141 c5 -5 15 -9 22 -9 6 0 23 -11 37 -25
14 -14 23 -25 21 -25 -13 0 -165 83 -165 90 0 10 69 -16 85 -31z m-582 -65
c47 -25 67 -62 26 -49 -15 5 -19 4 -15 -4 4 -7 -1 -11 -13 -11 -12 0 -21 -5
-21 -11 0 -6 -9 -8 -22 -4 l-23 6 23 -20 c13 -11 21 -25 18 -30 -10 -15 5 -40
19 -34 15 5 62 -33 53 -43 -3 -3 -28 8 -54 25 -59 37 -80 29 -33 -13 19 -17
42 -41 53 -53 18 -22 18 -22 -9 -47 -16 -15 -31 -26 -34 -26 -15 1 -37 26 -34
38 7 20 -25 14 -36 -7 -8 -14 -7 -22 5 -32 9 -7 20 -22 25 -34 16 -32 36 -66
48 -78 6 -6 11 -16 11 -21 -1 -6 -10 0 -21 13 -19 23 -20 23 -33 6 -12 -17
-14 -16 -32 9 -10 15 -29 39 -42 54 l-24 27 19 -33 c10 -18 30 -45 44 -60 33
-35 101 -152 88 -152 -5 0 -13 8 -16 18 -4 9 -17 27 -31 40 -23 22 -25 22 -38
5 -12 -16 -13 -16 -14 -1 0 9 6 19 13 22 9 5 9 7 -1 12 -7 3 -19 12 -26 20 -8
8 -19 14 -25 14 -6 0 -8 6 -6 13 3 6 -4 18 -15 25 -25 15 -25 8 -1 -26 30 -44
34 -79 12 -101 -19 -19 -19 -19 -35 17 l-16 37 4 -35 c2 -19 11 -61 19 -93 14
-54 9 -76 -13 -62 -5 3 -10 19 -10 36 0 16 -4 29 -10 29 -11 0 -14 -20 -11
-57 1 -13 -3 -23 -9 -23 -5 0 -10 10 -10 23 0 16 -3 18 -9 8 -10 -15 -31 -7
-31 12 0 7 -9 18 -20 25 -23 14 -25 10 -7 -19 10 -17 9 -22 -5 -33 -10 -7 -15
-15 -12 -18 3 -4 1 -8 -3 -11 -5 -3 -14 7 -20 23 -9 23 -8 28 3 23 8 -3 14 1
14 11 0 9 -5 16 -11 16 -6 0 -9 7 -6 15 7 18 -9 30 -17 13 -3 -9 -11 -6 -24
10 -26 29 -42 28 -42 -3 0 -31 -25 -34 -33 -4 -3 12 -10 18 -15 15 -6 -3 -12
0 -15 6 -2 7 -3 -15 -1 -49 1 -35 0 -63 -2 -63 -10 0 -34 28 -34 39 0 6 -5 11
-10 11 -6 0 -15 12 -20 26 -6 14 -15 22 -20 19 -6 -4 -8 -11 -5 -16 3 -5 0 -6
-8 -3 -9 3 -13 13 -10 25 3 10 1 19 -5 19 -12 0 -42 56 -42 78 0 9 -3 12 -7 9
-11 -12 -51 33 -46 52 2 10 -2 23 -11 30 -12 10 -14 9 -10 -11 4 -22 4 -22 -8
2 -7 14 -19 31 -28 38 -13 10 -13 11 3 6 24 -9 21 11 -7 38 -28 27 -52 91 -36
96 5 2 10 12 10 23 0 24 52 79 58 61 2 -7 10 -12 18 -12 8 0 33 -13 56 -30 22
-16 47 -30 55 -30 14 0 18 36 4 44 -9 6 -22 46 -15 46 3 0 16 -11 29 -25 14
-16 26 -22 30 -15 3 5 1 10 -4 10 -6 0 -11 7 -11 15 0 8 -4 15 -10 15 -16 0
-11 28 6 38 9 5 14 14 10 21 -9 14 -36 15 -36 1 0 -5 -8 -10 -17 -10 -16 1
-16 2 2 16 16 12 37 15 101 11 92 -5 135 -23 178 -74 23 -28 31 -32 43 -22 11
9 16 10 22 1 4 -7 12 -8 21 -2 8 6 12 10 8 11 -39 7 -78 29 -78 43 0 19 23 33
28 18 2 -7 8 -9 13 -6 6 3 5 11 -2 20 -9 11 -8 14 9 14 11 0 25 -7 32 -15 7
-8 19 -15 28 -15 8 0 23 -7 33 -16 10 -9 23 -14 29 -12 7 2 -12 19 -42 38
l-53 35 35 5 c24 4 34 10 32 20 -2 8 -1 12 3 8 3 -3 18 0 33 8 36 19 116 18
155 -2z m-3 -334 c0 -5 -4 -10 -10 -10 -5 0 -10 5 -10 10 0 6 5 10 10 10 6 0
10 -4 10 -10z m40 -40 c0 -5 -4 -10 -9 -10 -6 0 -13 5 -16 10 -3 6 1 10 9 10
9 0 16 -4 16 -10z m-795 -111 c-9 -13 159 -172 170 -161 3 3 5 1 5 -5 0 -5 11
-22 24 -38 17 -20 29 -25 45 -20 13 4 21 2 21 -5 0 -6 -4 -8 -10 -5 -5 3 -10
1 -10 -4 0 -6 9 -11 20 -11 11 0 20 -7 20 -15 0 -8 -7 -15 -15 -15 -16 0 -119
74 -173 124 -66 61 -130 166 -102 166 6 0 8 -5 5 -11z m-1386 -35 c17 -4 31
-11 31 -16 0 -5 -9 -7 -19 -3 -11 3 -29 8 -42 10 -12 2 -24 7 -27 10 -7 7 19
6 57 -1z m3245 -49 c8 -8 20 -15 27 -15 9 0 8 4 -1 15 -9 11 -9 15 -1 15 22 0
60 -31 55 -45 -3 -7 2 -28 11 -47 l17 -33 -21 22 c-11 12 -21 27 -21 32 0 6
-10 16 -22 22 -21 11 -22 11 -9 -4 11 -15 11 -17 -1 -17 -8 0 -19 5 -26 12 -6
6 -14 9 -18 6 -3 -4 4 -16 15 -27 12 -12 21 -26 21 -31 0 -6 9 -29 19 -50 24
-50 10 -53 -18 -4 -12 19 -25 32 -31 29 -5 -3 -7 0 -4 8 3 8 -6 27 -20 43 -20
22 -25 24 -19 9 3 -11 9 -24 13 -30 3 -5 7 -20 8 -33 0 -12 7 -36 16 -52 8
-18 10 -30 4 -30 -6 0 -8 -11 -6 -24 l5 -24 -36 16 c-20 10 -37 20 -39 25 -2
4 -10 7 -18 7 -11 0 -12 -4 -4 -19 16 -31 13 -43 -10 -29 -24 15 -37 4 -20
-17 10 -12 10 -15 -3 -15 -8 0 -18 7 -21 16 -5 13 -9 14 -21 4 -9 -8 -12 -17
-7 -24 11 -14 23 -46 17 -46 -2 0 -16 12 -31 28 -15 15 -23 21 -20 15 4 -7 0
-23 -9 -35 l-17 -23 7 24 c5 15 3 21 -3 17 -6 -3 -14 -1 -17 5 -4 5 -13 8 -20
5 -7 -2 -22 4 -34 15 -12 11 -21 15 -21 9 0 -7 -8 -9 -19 -5 -15 5 -18 1 -14
-22 l5 -28 -21 25 c-12 14 -28 40 -37 58 -9 17 -21 32 -26 32 -5 0 -6 5 -3 10
3 6 0 10 -7 10 -8 0 -22 13 -31 30 -15 25 -16 36 -6 72 6 24 21 52 33 64 25
25 66 40 66 25 0 -6 6 -11 14 -11 8 0 13 -8 11 -17 -4 -25 6 -38 16 -22 8 12
11 12 18 -1 7 -10 6 -17 -2 -22 -6 -4 -8 -10 -4 -15 12 -11 25 16 20 38 -6 20
21 27 32 9 4 -6 11 -8 16 -4 5 3 7 10 4 15 -4 5 1 9 9 9 8 0 18 -4 21 -10 3
-5 12 -10 18 -10 7 1 1 10 -12 20 -27 23 -21 25 24 9 25 -9 38 -9 66 4 64 29
120 34 143 12z m-1574 -95 c0 -10 8 -24 18 -29 12 -7 13 -10 3 -11 -16 0 -40
28 -41 48 0 6 5 12 10 12 6 0 10 -9 10 -20z m40 5 c0 -8 -4 -15 -10 -15 -5 0
-10 7 -10 15 0 8 5 15 10 15 6 0 10 -7 10 -15z m125 -115 c-3 -6 1 -10 9 -10
9 0 18 -12 22 -27 3 -16 14 -44 24 -63 10 -19 21 -46 25 -60 13 -44 37 -90 47
-90 6 0 7 11 4 26 -9 33 9 23 29 -17 11 -21 23 -29 42 -29 l27 0 -22 16 c-12
8 -20 20 -16 25 3 5 0 17 -8 26 -12 15 -11 15 9 5 12 -7 25 -21 28 -32 3 -11
11 -20 16 -20 5 0 9 -7 9 -16 0 -9 6 -14 13 -11 6 2 20 0 31 -5 17 -9 18 -7
14 21 -2 17 -3 31 -2 31 9 0 54 -57 54 -67 0 -7 5 -13 10 -13 17 0 11 18 -15
46 -22 24 -34 64 -19 64 3 0 27 -23 54 -51 36 -37 53 -49 62 -42 7 5 26 10 42
11 22 2 27 -2 22 -14 -3 -8 -2 -13 3 -10 4 3 25 -13 45 -36 29 -32 40 -38 46
-28 6 9 4 17 -3 22 -9 6 -8 10 3 18 24 15 30 12 37 -20 5 -28 15 -34 51 -33 6
1 12 -7 12 -17 0 -11 10 -20 27 -25 30 -7 85 -50 76 -59 -4 -3 8 -11 26 -17
24 -9 29 -14 19 -20 -10 -7 -8 -10 10 -15 12 -4 22 -10 22 -15 0 -5 12 -9 26
-9 14 0 23 -3 20 -8 -7 -12 17 -37 51 -52 17 -8 30 -17 27 -21 -5 -9 23 -39
36 -39 5 0 6 8 3 18 -4 9 15 -5 41 -33 44 -46 55 -46 17 -1 -16 19 -15 19 12
1 15 -10 32 -27 38 -37 6 -11 17 -17 25 -14 8 3 14 1 14 -4 0 -6 7 -10 15 -10
7 0 18 -6 22 -12 9 -14 47 -38 101 -63 36 -17 92 -69 92 -85 0 -6 7 -10 15
-10 8 0 15 -9 15 -19 0 -11 5 -23 10 -26 6 -3 7 -17 4 -29 -6 -26 50 -126 59
-104 3 7 6 3 6 -9 1 -21 11 -28 34 -24 4 1 10 -12 13 -29 6 -29 24 -43 24 -18
0 6 3 8 7 5 3 -4 -2 -16 -12 -27 -10 -11 -13 -20 -7 -20 6 0 14 5 17 10 12 19
25 -1 22 -33 -2 -18 3 -38 10 -46 10 -9 11 -17 3 -26 -8 -9 -6 -14 7 -19 14
-6 15 -9 4 -15 -11 -7 -9 -10 7 -15 11 -4 33 -28 47 -53 26 -43 26 -48 14 -85
-7 -22 -20 -45 -28 -51 -9 -7 -22 -24 -30 -39 -12 -23 -20 -27 -47 -25 -19 1
-36 8 -39 15 -2 6 -15 12 -27 12 -23 -1 -23 -1 -3 -16 19 -15 19 -15 -10 -8
-16 4 -38 11 -47 15 -10 6 -19 5 -23 -1 -3 -6 4 -14 17 -19 l23 -10 -25 0
c-14 0 -42 3 -62 8 -24 6 -40 5 -48 -3 -8 -8 -13 -8 -18 1 -5 8 -13 9 -22 3
-8 -6 -25 -10 -37 -10 -13 0 -32 -9 -43 -20 -14 -14 -20 -16 -20 -6 0 23 -43
28 -60 7 -20 -25 -50 -34 -66 -20 -15 13 -34 4 -34 -17 0 -8 -7 -14 -15 -14
-34 0 -128 -74 -130 -102 -2 -25 -22 -38 -59 -38 -22 0 -27 -3 -22 -17 4 -10
4 -14 0 -10 -10 9 -44 -22 -44 -40 0 -9 -7 -12 -24 -7 -22 5 -25 2 -31 -35 -6
-35 -10 -41 -31 -41 -15 0 -23 -4 -19 -11 4 -5 -5 -21 -20 -33 -16 -14 -25
-29 -20 -36 4 -6 -3 -22 -15 -35 -13 -14 -20 -31 -17 -39 4 -9 2 -18 -3 -21
-5 -3 -7 -19 -5 -36 l4 -32 -57 6 c-110 10 -211 55 -387 174 -81 54 -134 85
-260 152 -22 12 -34 21 -27 21 6 0 12 5 12 10 0 6 -7 10 -15 10 -8 0 -15 -4
-15 -9 0 -5 -11 -4 -24 2 -20 10 -22 13 -10 20 12 7 12 12 4 22 -9 11 -6 15
14 21 14 3 26 10 26 15 0 9 -3 10 -32 13 -7 0 -14 7 -14 14 -1 6 -2 17 -3 22
0 6 -12 16 -26 22 -22 10 -24 13 -10 21 11 6 27 2 50 -12 36 -21 48 -18 18 4
-18 13 -23 65 -10 99 6 14 10 16 21 7 18 -15 27 -2 15 21 -8 14 -17 18 -37 14
-21 -5 -35 2 -64 28 -21 19 -38 40 -38 48 0 7 -14 19 -30 26 -17 8 -33 24 -36
37 -8 33 -40 41 -183 47 -49 2 -76 7 -79 16 -5 15 -73 6 -84 -12 -6 -8 -11 -6
-18 4 -6 10 -10 11 -10 3 0 -16 -54 -17 -81 -2 -11 5 -16 15 -13 21 5 7 2 8
-5 4 -7 -5 -18 0 -27 10 -13 18 -14 18 -20 -3 -7 -25 -15 -28 -29 -14 -16 15
-78 16 -105 1 -14 -8 -29 -13 -33 -12 -4 1 -10 -5 -13 -13 -4 -8 -12 -15 -20
-15 -8 0 -14 -5 -14 -11 0 -6 -8 -8 -18 -5 -24 8 -63 -30 -40 -39 8 -3 30 1
50 9 34 15 48 13 48 -6 0 -5 -9 -6 -20 -3 -12 4 -26 0 -36 -9 -8 -9 -22 -16
-30 -16 -8 0 -14 -5 -14 -11 0 -6 7 -8 16 -5 21 8 65 -4 58 -15 -3 -5 2 -9 10
-9 8 0 18 5 21 10 3 6 26 10 51 10 32 0 44 -4 44 -15 0 -17 16 -20 25 -5 10
16 24 2 18 -18 -3 -14 8 -23 46 -40 28 -12 63 -22 77 -22 18 0 28 -7 31 -20 3
-12 18 -27 34 -36 16 -8 29 -21 29 -29 0 -8 4 -15 10 -15 5 0 7 -7 4 -15 -4
-11 1 -15 17 -16 13 0 19 -3 12 -5 -6 -3 -80 5 -165 16 -197 28 -573 37 -871
21 -120 -7 -225 -15 -235 -18 -9 -3 -14 -3 -10 2 4 4 0 14 -10 22 -15 13 -15
14 0 10 17 -6 19 8 4 32 -5 8 -4 16 4 21 9 6 8 10 -5 17 -14 8 -15 14 -6 31
13 24 15 62 3 62 -4 0 -7 25 -7 55 0 45 4 57 23 71 15 10 21 22 17 34 -4 13 1
23 14 32 19 12 19 12 0 26 -19 13 -18 14 7 48 21 26 24 37 15 48 -9 11 -8 15
5 20 15 6 15 8 1 30 -13 20 -14 27 -3 42 7 9 11 26 8 36 -4 17 5 22 33 19 10
-1 17 52 19 137 1 49 13 56 18 10 2 -21 8 -32 16 -30 10 2 11 -4 7 -19 -5 -15
-4 -19 4 -15 15 10 14 57 -1 54 -9 -2 -12 8 -11 30 1 25 -2 32 -13 28 -8 -3
-14 0 -14 7 0 7 9 13 20 13 11 0 20 -5 20 -10 0 -5 14 6 30 24 17 19 28 41 26
49 -2 9 -7 34 -9 56 -3 22 -3 32 -1 23 7 -25 34 -23 34 2 0 22 10 26 27 9 7
-7 9 -3 6 14 -4 19 0 27 16 32 12 3 21 15 21 25 0 13 5 17 15 14 8 -4 15 -2
15 4 0 6 3 17 6 26 4 10 1 16 -9 16 -18 0 -29 37 -20 68 5 20 7 21 22 9 24
-21 61 -39 61 -30 0 5 -13 23 -30 41 -37 41 -38 52 -2 52 35 0 45 9 31 26 -13
16 -3 35 15 28 12 -5 21 9 31 46 1 3 6 14 10 24 6 13 5 21 -3 24 -21 7 -13 27
19 44 23 14 29 23 24 38 -5 15 0 22 20 30 33 13 45 13 25 0 -13 -8 -12 -10 3
-10 9 0 17 7 17 15 0 8 4 15 10 15 5 0 7 6 4 14 -3 8 -1 17 5 21 6 3 11 -1 11
-9 0 -22 37 -30 56 -11 15 14 18 14 33 0 20 -18 41 -21 23 -3 -18 18 -14 44 7
44 12 0 17 -5 13 -15 -4 -9 -1 -12 7 -7 8 5 14 0 18 -13 5 -20 6 -20 19 -4 13
16 14 15 8 -9 -5 -23 -3 -28 14 -28 18 0 19 4 11 38 -11 47 -11 52 0 52 5 0
11 -10 13 -22 4 -32 38 -37 38 -6 1 31 25 74 34 59 4 -6 5 -15 2 -20 -3 -5 5
-12 19 -15 14 -4 25 -13 25 -21 0 -8 9 -19 20 -25 15 -8 20 -8 20 3 0 8 -3 17
-7 21 -4 4 -9 19 -10 34 -3 22 0 19 21 -18 17 -32 30 -45 45 -44 16 0 18 -2
10 -13 -9 -10 -8 -13 5 -13 9 0 16 8 16 19 0 16 6 18 45 13 54 -6 83 11 63 36
-10 13 -10 14 0 8 6 -4 12 -2 12 3 0 20 15 11 35 -19 20 -30 45 -40 45 -19 0
8 4 8 14 0 7 -6 21 -9 30 -5 9 3 16 2 16 -2 0 -5 10 -20 21 -34 17 -21 19 -22
10 -3 -15 31 -14 35 9 23 28 -15 26 5 -2 24 -12 9 -19 16 -14 16 5 0 1 10 -10
21 -19 22 -19 22 6 14 14 -4 26 -11 28 -15 2 -5 14 -20 28 -35 16 -18 24 -21
24 -11 0 8 -9 21 -21 29 -17 12 -19 21 -14 51 7 37 25 50 25 18 0 -9 9 -23 20
-30 15 -9 20 -23 20 -57 0 -27 5 -45 11 -45 8 0 10 13 6 38 -5 26 -3 32 3 22
8 -13 11 -13 19 -1 5 7 13 11 19 7 5 -3 13 1 16 10 5 13 9 14 21 4 8 -7 15
-19 15 -26 0 -8 7 -14 15 -14 8 0 15 -6 15 -12 0 -9 4 -8 10 2 8 12 10 11 10
-7 0 -22 17 -29 58 -24 9 2 11 -6 6 -23 -4 -16 -2 -26 5 -26 6 0 11 7 11 16 0
11 8 9 35 -12 27 -20 35 -23 35 -11 0 9 -11 27 -25 41 -25 25 -33 56 -15 56 6
0 10 -11 10 -24 0 -20 4 -23 22 -18 14 3 19 2 14 -6 -5 -8 0 -12 13 -12 11 0
28 -14 41 -35 23 -37 49 -50 30 -16 -5 11 -10 28 -10 39 0 11 -6 24 -13 30
-12 10 -22 62 -12 62 19 0 52 -25 48 -36 -3 -8 0 -14 7 -14 9 0 10 13 6 48
l-7 47 20 -25 c11 -14 25 -44 31 -67 5 -24 15 -43 20 -43 13 0 13 -4 -10 59
-17 47 -29 69 -64 116 -5 7 -6 21 -2 31 7 18 8 18 17 1 6 -9 7 -22 4 -27z
m185 30 c0 -5 -4 -10 -10 -10 -5 0 -10 5 -10 10 0 6 5 10 10 10 6 0 10 -4 10
-10z m-320 -30 c0 -5 -4 -10 -10 -10 -5 0 -10 5 -10 10 0 6 5 10 10 10 6 0 10
-4 10 -10z m-790 -20 c0 -5 -4 -10 -9 -10 -6 0 -13 5 -16 10 -3 6 1 10 9 10 9
0 16 -4 16 -10z m879 1 c8 -5 10 -14 6 -21 -5 -9 -4 -11 3 -6 7 4 12 1 12 -8
0 -9 -7 -16 -15 -16 -8 0 -15 5 -15 10 0 6 -7 10 -15 10 -17 0 -18 2 -9 24 7
18 13 19 33 7z m-335 -16 c3 -8 1 -15 -4 -15 -6 0 -10 7 -10 15 0 8 2 15 4 15
2 0 6 -7 10 -15z m1336 -22 c0 -8 12 -30 26 -49 16 -21 21 -32 12 -29 -14 6
-68 93 -68 110 0 4 7 2 15 -5 8 -7 15 -19 15 -27z m-1700 -9 c0 -8 -5 -12 -10
-9 -6 4 -8 11 -5 16 9 14 15 11 15 -7z m510 -53 c0 -6 -4 -13 -10 -16 -5 -3
-10 1 -10 9 0 9 5 16 10 16 6 0 10 -4 10 -9z m520 -12 c16 -30 8 -31 -13 -3
-10 13 -13 24 -8 24 6 0 15 -9 21 -21z m1550 1 c0 -5 -2 -10 -4 -10 -3 0 -8 5
-11 10 -3 6 -1 10 4 10 6 0 11 -4 11 -10z m-1475 -29 c-3 -5 -1 -12 5 -16 5
-3 10 -11 10 -16 0 -6 -7 -4 -15 5 -17 17 -20 36 -4 36 5 0 8 -4 4 -9z m1475
-63 c0 -6 -7 -5 -15 2 -8 7 -15 17 -15 22 0 6 7 5 15 -2 8 -7 15 -17 15 -22z
m-1111 -12 c-3 -3 -11 5 -18 17 -13 21 -12 21 5 5 10 -10 16 -20 13 -22z
m-241 -41 c-3 -4 -16 9 -28 27 l-23 33 28 -27 c16 -15 26 -30 23 -33z m1426 2
c14 -21 26 -42 26 -47 0 -5 14 -35 31 -66 16 -31 28 -58 27 -60 -6 -6 -58 80
-65 106 -3 14 -17 41 -30 60 -12 19 -23 39 -23 44 0 12 4 8 34 -37z m-1315
-37 c6 0 11 7 11 15 0 8 5 15 10 15 18 0 10 -29 -10 -40 -17 -9 -24 -7 -40 12
-11 13 -19 28 -19 33 0 6 8 0 18 -12 11 -13 24 -23 30 -23z m1454 -227 c26
-41 50 -104 43 -111 -3 -2 -17 22 -31 55 -15 32 -31 66 -36 76 -17 32 0 18 24
-20z m185 1 c13 -20 19 -33 13 -30 -16 10 -53 66 -44 66 4 0 18 -16 31 -36z
m-948 -124 c0 -5 -4 -10 -10 -10 -5 0 -10 5 -10 10 0 6 5 10 10 10 6 0 10 -4
10 -10z m834 -26 c4 -10 1 -14 -6 -12 -15 5 -23 28 -10 28 5 0 13 -7 16 -16z
m214 -9 c-3 -3 -9 2 -12 12 -6 14 -5 15 5 6 7 -7 10 -15 7 -18z m40 -51 c7
-14 8 -23 2 -19 -15 9 -32 45 -22 45 5 0 14 -12 20 -26z m-1021 -3 c9 -11 19
-18 22 -16 3 1 7 -7 7 -19 2 -21 -1 -21 -32 11 -19 18 -34 36 -34 38 0 12 22
3 37 -14z m-3067 -49 c7 2 15 -3 17 -9 3 -7 -1 -13 -7 -13 -18 0 -50 20 -50
32 0 7 4 7 14 -1 8 -6 19 -10 26 -9z m-90 -72 c0 -5 -4 -10 -10 -10 -5 0 -10
5 -10 10 0 6 5 10 10 10 6 0 10 -4 10 -10z m-363 -72 c10 -17 5 -47 -13 -72
-8 -11 -14 -33 -14 -48 0 -21 -10 -35 -42 -59 -24 -17 -46 -37 -51 -44 -10
-18 -59 -43 -75 -37 -7 2 -12 10 -12 18 0 30 -35 10 -50 -30 -10 -28 -11 -28
-30 -11 -11 10 -20 13 -20 7 0 -6 9 -16 20 -22 11 -6 20 -21 20 -33 0 -13 5
-28 12 -35 27 -27 -23 -11 -56 19 -57 50 -75 87 -75 153 1 48 6 63 28 87 29
32 113 54 164 43 23 -5 35 0 60 24 49 47 116 67 134 40z m380 -94 c-3 -3 -12
-4 -19 -1 -8 3 -5 6 6 6 11 1 17 -2 13 -5z m4278 -34 c3 -5 1 -10 -4 -10 -6 0
-11 5 -11 10 0 6 2 10 4 10 3 0 8 -4 11 -10z m-5315 -364 c0 -3 -4 -8 -10 -11
-5 -3 -10 -1 -10 4 0 6 5 11 10 11 6 0 10 -2 10 -4z m-29 -67 c-9 -22 -10 -22
-10 -3 -1 11 2 24 6 27 12 12 14 0 4 -24z m2026 -51 c-3 -8 -6 -5 -6 6 -1 11
2 17 5 13 3 -3 4 -12 1 -19z m58 -18 c18 -8 17 -9 -7 -9 -16 -1 -28 4 -28 9 0
12 8 12 35 0z m2482 -66 c-3 -3 -12 -4 -19 -1 -8 3 -5 6 6 6 11 1 17 -2 13 -5z
m-3617 -74 c0 -5 -4 -10 -10 -10 -5 0 -10 5 -10 10 0 6 5 10 10 10 6 0 10 -4
10 -10z m588 -27 c3 -10 -19 -13 -90 -13 -51 0 -172 -7 -268 -15 -251 -22
-265 -23 -265 -6 0 23 55 32 268 40 266 11 349 9 355 -6z m757 -3 c3 -5 -1
-10 -9 -10 -9 0 -16 5 -16 10 0 6 4 10 9 10 6 0 13 -4 16 -10z m364 -22 c0
-13 -3 -17 -6 -10 -7 18 -23 15 -24 -5 0 -13 -2 -14 -6 -4 -3 8 2 20 13 28 23
17 24 17 23 -9z m-75 -31 c-9 -5 -18 -6 -21 -3 -4 3 -1 6 5 6 7 0 12 8 12 18
0 14 2 15 10 2 6 -10 4 -17 -6 -23z m-1706 -11 c0 -14 -7 -27 -15 -30 -8 -3
-11 -10 -8 -16 3 -5 1 -10 -4 -10 -18 0 -13 58 7 69 9 6 18 11 18 11 1 0 2
-11 2 -24z m1607 14 c-3 -5 -11 -10 -16 -10 -6 0 -7 5 -4 10 3 6 11 10 16 10
6 0 7 -4 4 -10z m72 -26 c-3 -3 -12 -4 -19 -1 -8 3 -5 6 6 6 11 1 17 -2 13 -5z
m-822 -13 c3 -5 -13 -17 -35 -27 -22 -10 -40 -23 -40 -30 0 -17 -27 -37 -52
-38 -26 -1 -36 -24 -14 -31 9 -3 24 -8 34 -12 9 -3 21 -5 27 -4 5 1 28 0 51
-4 47 -7 56 -22 56 -90 0 -65 0 -65 -39 -65 -29 0 -34 3 -25 12 18 18 15 28
-10 29 -21 1 -20 2 5 11 37 13 34 35 -5 29 -5 0 -8 4 -8 9 0 6 10 10 21 10 21
0 21 1 -4 20 -24 19 -63 18 -51 -1 3 -5 -8 -9 -25 -9 -24 0 -34 7 -46 30 -17
33 -30 38 -39 15 -3 -8 -12 -15 -21 -15 -8 0 -15 -7 -15 -15 0 -8 -8 -15 -18
-15 -10 0 -22 -3 -26 -7 -4 -5 -25 -8 -46 -9 -21 0 -46 -7 -55 -14 -9 -8 -23
-15 -30 -16 -7 -1 -22 -5 -34 -9 -27 -8 -27 -6 8 64 66 131 147 168 413 190 9
0 19 -3 23 -8z m898 1 c4 10 9 8 17 -5 6 -9 17 -14 23 -11 8 5 9 4 2 -4 -13
-14 -88 6 -79 20 3 5 12 4 19 -2 10 -8 14 -7 18 2z m-582 -20 c-7 -2 -18 1
-23 6 -8 8 -4 9 13 5 13 -4 18 -8 10 -11z m46 2 c-3 -3 -12 -4 -19 -1 -8 3 -5
6 6 6 11 1 17 -2 13 -5z m53 -8 c0 -9 -30 -14 -35 -6 -4 6 3 10 14 10 12 0 21
-2 21 -4z m2427 -17 c53 -17 103 -49 103 -65 0 -8 6 -14 13 -14 7 0 18 -9 24
-19 11 -18 7 -19 -80 -25 -51 -3 -168 -7 -262 -8 -164 -3 -170 -2 -170 17 0
20 20 33 158 102 48 24 70 29 118 27 32 -1 75 -8 96 -15z m-3426 1 c29 -6 60
-18 69 -26 14 -15 13 -15 -7 -9 -14 4 -23 2 -23 -4 0 -6 -9 -11 -20 -11 -11 0
-20 5 -20 10 0 15 -97 13 -103 -2 -4 -10 -8 -9 -16 2 -8 11 -6 19 10 33 25 20
37 21 110 7z m1096 -6 c-3 -3 -12 -4 -19 -1 -8 3 -5 6 6 6 11 1 17 -2 13 -5z
m2453 -37 c0 -5 -4 -5 -10 -2 -5 3 -10 14 -10 23 0 15 2 15 10 2 5 -8 10 -19
10 -23z m-2447 -4 c4 -3 -1 -12 -11 -19 -12 -9 -21 -9 -30 -2 -11 9 -11 13 0
19 16 10 32 11 41 2z m-160 -12 c-5 -3 -12 -14 -16 -24 -4 -9 -15 -20 -24 -23
-10 -3 -25 -9 -34 -14 -9 -5 -20 -6 -24 -2 -8 8 -45 13 -97 13 -48 -1 -49 14
-3 29 54 18 85 19 85 4 0 -8 5 -14 10 -14 6 0 10 8 10 19 0 16 8 19 51 19 28
0 47 -3 42 -7z m87 -25 c0 -8 -11 -17 -25 -20 -14 -4 -25 -11 -25 -16 0 -6 -7
-10 -15 -10 -21 0 -19 30 3 46 23 18 62 18 62 0z m69 -15 c18 -11 5 -31 -20
-31 -21 0 -22 1 -13 24 7 18 13 19 33 7z m1946 -49 c-3 -3 -11 0 -18 7 -9 10
-8 11 6 5 10 -3 15 -9 12 -12z m1415 -52 c0 -5 -2 -10 -4 -10 -3 0 -8 5 -11
10 -3 6 -1 10 4 10 6 0 11 -4 11 -10z m-4605 -36 c14 -9 25 -20 25 -24 0 -10
-69 23 -70 33 0 12 19 8 45 -9z m4661 -48 c6 -20 18 -51 50 -124 18 -42 18
-47 -2 -32 -17 15 -54 87 -54 106 0 7 -5 14 -12 16 -6 2 -11 18 -10 36 0 22
-4 32 -14 32 -8 0 -12 5 -9 11 9 13 42 -16 51 -45z m-4299 29 c8 -22 -6 -33
-17 -15 -13 20 -12 30 0 30 6 0 13 -7 17 -15z m3373 -16 c0 -5 -13 -9 -30 -9
-28 0 -38 9 -25 22 8 8 55 -3 55 -13z m-160 1 c0 -5 -2 -10 -4 -10 -3 0 -8 5
-11 10 -3 6 -1 10 4 10 6 0 11 -4 11 -10z m-350 -12 c-19 -5 -42 -9 -52 -9 -9
0 -24 -9 -34 -20 -22 -24 -34 -24 -34 0 0 14 12 20 53 28 70 14 115 15 67 1z
m-2170 -48 c0 -35 -3 -40 -23 -40 -14 0 -24 -6 -24 -15 0 -8 4 -15 9 -15 4 0
8 -4 8 -10 0 -5 -12 -10 -27 -10 -14 0 -23 3 -20 7 4 3 2 12 -3 18 -7 9 -6 14
4 18 8 3 20 16 26 28 12 21 11 22 -21 15 -26 -5 -31 -4 -21 6 10 10 63 33 85
37 4 0 7 -17 7 -39z m40 26 c0 -3 -4 -8 -10 -11 -5 -3 -10 -1 -10 4 0 6 5 11
10 11 6 0 10 -2 10 -4z m2000 -18 c0 -16 -3 -19 -8 -10 -10 15 -38 7 -46 -13
-3 -8 -22 -17 -43 -20 -63 -11 -75 -16 -69 -30 3 -9 0 -12 -10 -8 -11 4 -12 9
-4 18 18 21 77 46 94 39 10 -4 16 -1 16 10 0 9 14 19 33 25 17 5 33 10 35 10
1 1 2 -9 2 -21z m-33 -40 c-3 -8 -6 -5 -6 6 -1 11 2 17 5 13 3 -3 4 -12 1 -19z
m-2107 -4 c0 -7 -6 -14 -12 -17 -9 -3 -7 -10 7 -21 14 -10 16 -15 6 -16 -19 0
-39 30 -34 50 5 19 33 23 33 4z m1385 -14 c4 -6 -5 -10 -19 -10 -14 0 -26 5
-26 10 0 6 9 10 19 10 11 0 23 -4 26 -10z m555 -30 c0 -5 -5 -10 -11 -10 -5 0
-7 5 -4 10 3 6 8 10 11 10 2 0 4 -4 4 -10z m-1091 -31 c17 -6 31 -16 31 -21 0
-6 10 -21 23 -34 51 -53 57 -62 57 -90 0 -40 -19 -104 -30 -104 -6 0 -10 -16
-10 -36 0 -42 -26 -70 -47 -52 -9 7 -13 7 -13 -1 0 -8 -5 -8 -19 1 -24 15 -55
0 -88 -41 -25 -32 -17 -65 11 -42 9 8 16 19 16 26 0 28 67 34 78 8 10 -25 49
-26 72 -3 11 11 20 23 20 26 0 10 31 36 37 31 3 -4 14 -2 24 4 24 12 24 -2 0
-32 -24 -32 -34 -66 -21 -74 7 -4 3 -16 -10 -35 -11 -15 -17 -35 -14 -44 3 -9
2 -16 -4 -16 -5 0 -13 -17 -17 -37 -4 -20 -13 -46 -20 -56 -14 -20 -10 -51 6
-41 5 3 9 0 9 -5 0 -6 -4 -11 -10 -11 -5 0 -17 -14 -26 -31 -48 -93 -187 -198
-314 -236 -68 -20 -278 -27 -419 -14 -132 13 -309 44 -338 59 -10 5 -36 13
-58 17 -68 12 -187 81 -254 147 -96 96 -164 252 -186 432 -7 57 -7 58 13 47
12 -6 23 -7 26 -2 4 5 0 12 -6 14 -7 3 -3 6 10 6 13 1 21 -3 17 -8 -3 -5 -1
-13 5 -16 6 -4 8 -15 5 -26 -7 -21 -5 -22 19 -13 13 5 14 9 5 20 -9 11 -6 14
15 14 19 0 26 -5 26 -20 0 -12 7 -20 18 -20 14 0 15 -2 2 -10 -16 -10 -8 -13
28 -10 12 1 22 -3 22 -9 0 -6 -7 -8 -15 -5 -11 5 -15 -1 -15 -24 0 -33 14 -50
24 -30 5 10 7 10 12 0 3 -7 24 -31 47 -53 30 -31 45 -39 63 -35 17 5 21 2 18
-12 -5 -21 62 -57 71 -38 3 6 4 -1 2 -16 -3 -21 1 -28 19 -32 22 -6 75 -2 132
10 32 6 27 22 -10 32 -17 4 -33 13 -36 20 -6 18 34 15 64 -4 28 -19 43 -12 24
11 -7 9 -10 18 -7 22 4 3 2 12 -4 20 -14 17 0 17 26 0 23 -14 58 -14 129 1 27
5 54 8 60 6 6 -2 20 3 31 12 20 15 20 15 -4 35 -18 15 -27 17 -38 8 -20 -18
-73 -20 -73 -3 0 30 48 47 118 42 37 -3 58 -2 47 2 -19 7 -19 8 -1 15 10 5 21
3 25 -3 4 -6 18 -15 31 -20 24 -9 23 -10 -15 -17 -22 -3 -46 -8 -53 -11 -24
-7 -6 -29 26 -32 22 -2 32 -9 33 -20 1 -10 4 -8 8 7 4 14 15 25 28 27 28 5 41
-16 19 -28 -9 -5 -16 -17 -16 -26 0 -15 -2 -15 -10 -2 -6 9 -10 10 -10 3 0
-19 13 -22 60 -12 25 6 56 12 68 14 13 2 31 10 40 18 10 8 32 18 50 22 28 6
32 4 32 -14 0 -21 1 -21 38 -6 42 18 75 45 53 45 -7 0 1 12 18 26 17 14 29 30
26 34 -9 14 -73 -33 -77 -55 -2 -13 -12 -21 -29 -23 -23 -3 -27 1 -32 30 -2
18 -1 35 4 36 5 2 9 10 9 18 0 8 9 14 20 14 11 0 20 5 20 10 0 6 -4 10 -10 10
-5 0 -10 5 -10 10 0 6 7 10 15 10 9 0 25 9 37 20 11 10 36 26 55 35 28 14 33
20 27 38 -4 12 -7 30 -8 40 -1 10 -6 21 -13 25 -16 10 -13 51 4 45 13 -5 18
13 14 51 -1 16 4 18 37 12 31 -5 43 -2 57 14 10 11 19 20 20 20 1 0 16 -5 34
-11z m2671 2 c18 -5 25 -14 25 -31 0 -23 -4 -25 -45 -24 -67 1 -100 11 -100
33 0 10 3 21 7 24 8 9 80 7 113 -2z m-1610 -12 c0 -5 -4 -7 -10 -4 -5 3 -10 1
-10 -4 0 -6 -5 -11 -11 -11 -8 0 -8 5 1 15 14 17 30 20 30 4z m-816 -68 c-7
-9 -24 13 -24 32 0 21 1 21 13 -3 8 -14 12 -27 11 -29z m2643 34 c8 -22 -6
-33 -17 -15 -13 20 -12 30 0 30 6 0 13 -7 17 -15z m-2673 -45 c-6 -5 -24 21
-24 34 0 6 6 1 14 -10 8 -10 12 -21 10 -24z m-929 -28 c-8 -8 -25 10 -25 26 0
13 2 13 14 -4 8 -10 13 -21 11 -22z m215 22 c0 -9 9 -18 21 -21 14 -4 18 -11
13 -22 -3 -9 -7 -22 -7 -28 0 -7 -4 -13 -9 -13 -4 0 -8 -5 -8 -10 0 -6 11 -8
25 -4 28 7 33 -7 11 -25 -8 -7 -18 -25 -21 -41 -4 -19 -14 -29 -31 -33 -13 -2
-24 0 -24 4 0 5 -7 9 -15 9 -19 0 -21 90 -2 109 10 10 9 11 -5 6 -14 -6 -17
-1 -15 34 1 32 5 41 22 44 39 8 45 7 45 -9z m753 -31 c4 -37 -6 -72 -43 -142
-20 -39 -60 -53 -60 -22 0 21 30 38 31 18 0 -7 5 -1 11 13 5 14 10 55 9 92 0
67 2 70 40 77 4 0 9 -16 12 -36z m2645 8 c3 -17 7 -20 17 -11 10 8 15 8 21 -1
4 -7 2 -15 -4 -17 -15 -5 -16 -58 -2 -67 6 -3 10 -20 10 -38 0 -17 -4 -27 -8
-21 -9 9 -62 163 -62 178 0 18 25 -2 28 -23z m-4592 -18 c4 -21 10 -42 14 -48
4 -5 20 -57 35 -115 78 -300 150 -429 299 -534 103 -74 246 -127 411 -155 39
-7 95 -16 125 -21 61 -11 310 -32 377 -32 24 0 43 -4 43 -9 0 -4 8 -5 18 -2
15 6 15 5 4 -10 -8 -9 -12 -22 -10 -28 6 -18 49 -19 55 -2 4 10 8 11 13 4 4
-8 22 -8 58 -1 29 5 59 7 68 3 9 -3 19 -1 23 6 4 6 32 16 63 20 68 12 112 37
144 85 14 20 29 36 34 36 6 0 10 6 10 13 0 9 10 12 33 10 29 -3 30 -2 9 7 -25
10 -22 33 3 23 10 -3 15 2 15 16 0 12 4 21 10 21 5 0 7 8 4 18 -5 13 -4 14 4
3 12 -17 30 -6 44 27 9 22 12 24 15 9 6 -22 23 -12 23 14 0 12 7 19 20 19 11
0 23 7 26 15 4 8 14 15 23 15 13 1 12 4 -6 19 -22 18 -22 19 -3 36 11 10 20
13 20 7 0 -6 -5 -14 -11 -18 -14 -8 8 -24 34 -24 20 0 22 22 5 50 -10 16 -10
24 0 41 7 11 10 30 6 41 -4 13 -1 24 7 29 12 8 12 11 -1 18 -11 8 -12 14 -2
33 6 13 13 43 16 68 5 53 23 98 49 122 10 9 16 21 13 26 -6 10 39 56 57 57 7
1 24 6 40 13 34 14 116 0 165 -30 52 -32 77 -96 122 -313 22 -102 38 -163 50
-185 6 -12 9 -28 6 -36 -3 -8 -2 -14 3 -14 4 0 21 -26 37 -57 18 -34 62 -90
108 -135 62 -63 95 -86 169 -122 51 -24 117 -49 147 -55 76 -15 287 -29 396
-26 50 2 97 -1 105 -6 12 -7 11 -9 -1 -9 -9 0 -21 -15 -28 -33 -13 -35 -51
-61 -76 -51 -8 3 -23 1 -32 -4 -15 -8 -13 -12 17 -32 23 -15 39 -36 47 -61 15
-47 15 -62 2 -54 -5 3 -10 -1 -10 -9 0 -9 5 -16 11 -16 6 0 8 -8 6 -17 -17
-64 -17 -73 0 -73 11 0 14 -3 8 -8 -6 -4 -24 -33 -39 -66 -21 -42 -25 -60 -17
-65 9 -6 8 -15 -3 -37 -29 -55 -49 -106 -49 -123 0 -9 -6 -24 -14 -33 -9 -10
-12 -25 -8 -37 4 -14 0 -23 -15 -31 -11 -6 -18 -16 -14 -21 6 -10 -1 -30 -28
-82 -5 -10 -6 -22 -3 -27 4 -6 0 -10 -8 -10 -10 0 -13 -7 -10 -20 5 -19 -14
-89 -43 -158 -8 -18 -14 -51 -14 -72 0 -22 -4 -40 -10 -40 -5 0 -10 -10 -10
-22 -1 -28 -22 -108 -33 -125 -5 -7 -6 -17 -3 -22 3 -5 -1 -14 -9 -21 -8 -7
-15 -24 -15 -37 0 -14 -8 -37 -19 -51 -10 -15 -22 -37 -25 -49 -4 -13 -11 -23
-16 -23 -5 0 -11 -14 -15 -30 -4 -17 -10 -30 -14 -30 -5 0 -16 -18 -26 -40
-16 -35 -45 -55 -45 -31 0 5 -8 8 -17 7 -16 -1 -18 9 -17 77 0 56 -3 77 -12
77 -18 0 -21 7 -29 68 -6 45 -5 51 9 46 9 -3 16 -1 16 5 0 6 -6 11 -14 11 -8
0 -17 6 -20 13 -5 10 -7 10 -12 0 -3 -7 -11 -13 -18 -13 -14 0 -46 -67 -46
-96 0 -11 -10 -24 -22 -29 -15 -7 -24 -20 -26 -40 -2 -16 -9 -34 -15 -40 -7
-5 -18 -23 -25 -39 -11 -25 -10 -32 13 -61 29 -39 31 -57 10 -75 -12 -10 -13
-16 -4 -26 6 -8 9 -27 7 -44 -2 -16 0 -31 5 -33 16 -5 -2 -77 -19 -77 -12 0
-14 -7 -9 -29 5 -23 2 -32 -15 -44 -18 -13 -20 -19 -10 -36 6 -12 8 -26 4 -32
-4 -6 0 -15 7 -20 11 -6 11 -11 1 -21 -9 -9 -12 -9 -12 5 0 9 -4 17 -10 17
-12 0 -10 10 -20 -85 -15 -136 -21 -157 -50 -184 -15 -14 -33 -43 -39 -63 -12
-36 -47 -68 -76 -68 -8 0 -15 -6 -15 -14 0 -8 -17 -25 -37 -37 -21 -13 -43
-29 -49 -37 -5 -8 -23 -15 -40 -15 -32 -2 -64 -24 -64 -44 0 -7 -10 -13 -23
-13 -12 0 -33 -7 -45 -16 -20 -14 -30 -14 -69 -5 -35 9 -48 9 -60 -1 -9 -7
-33 -13 -54 -13 -29 0 -39 4 -43 19 -4 15 -11 17 -33 12 -77 -17 -123 -19
-123 -5 -1 10 -4 9 -11 -3 -5 -10 -16 -15 -24 -11 -9 3 -21 0 -29 -6 -10 -8
-19 -6 -39 9 -14 11 -30 20 -35 20 -6 0 -12 6 -15 13 -3 9 -7 9 -20 -2 -14
-11 -20 -11 -32 -1 -12 10 -18 10 -30 0 -9 -7 -15 -8 -15 -2 0 18 -33 24 -42
7 -13 -21 -28 -19 -28 5 0 18 -4 20 -40 14 -27 -4 -40 -3 -40 5 0 6 -11 11
-25 11 -15 0 -25 6 -25 14 0 7 -7 19 -15 26 -12 10 -15 9 -15 -7 0 -26 -41
-28 -68 -3 -12 11 -27 20 -35 20 -8 0 -28 15 -45 33 -16 17 -41 41 -54 53 -51
46 -98 102 -98 118 0 9 -4 16 -10 16 -5 0 -10 -5 -10 -11 0 -6 -6 -9 -12 -6
-7 2 -12 10 -11 16 2 6 -4 11 -12 11 -9 0 -15 -9 -15 -22 0 -22 26 -58 42 -58
17 0 57 -55 52 -72 -3 -10 3 -22 15 -30 12 -7 21 -18 21 -25 0 -22 -35 -14
-60 12 -13 14 -32 25 -43 25 -16 0 -17 3 -7 15 13 16 14 16 -42 20 -15 1 -34
8 -43 15 -8 7 -24 10 -34 7 -11 -3 -29 2 -41 10 -16 11 -25 12 -33 4 -17 -17
-24 -14 -37 20 -11 26 -17 30 -42 27 -16 -3 -31 -1 -34 4 -3 4 -14 8 -25 8
-10 0 -19 6 -19 13 0 6 -14 20 -30 29 -25 14 -30 15 -30 3 0 -23 -28 -18 -58
10 -15 14 -34 25 -43 25 -9 0 -20 7 -23 16 -4 10 -2 13 7 8 6 -4 1 5 -13 20
-16 18 -32 26 -46 23 -17 -3 -20 0 -16 15 3 14 0 17 -13 11 -12 -4 -16 -3 -11
5 4 6 -4 18 -19 28 -14 9 -25 22 -25 30 0 8 -9 19 -20 26 -14 9 -20 24 -20 50
0 39 -15 52 -23 21 -3 -12 -5 -8 -6 9 -1 32 -19 46 -32 27 -7 -9 -7 -5 -3 14
3 15 2 27 -2 27 -24 0 -99 85 -114 128 -12 33 -22 47 -34 45 -14 -1 -12 5 10
28 28 30 28 30 6 36 -12 3 -22 9 -22 14 0 5 -9 9 -20 9 -17 0 -20 7 -21 43 -1
23 -1 48 0 55 1 6 -3 12 -9 12 -7 0 -9 8 -5 20 4 13 1 22 -9 26 -20 8 -21 34
-1 34 9 0 15 10 15 26 0 16 -4 23 -11 18 -8 -4 -8 0 0 15 14 25 -5 74 -19 51
-6 -10 -9 -9 -16 1 -4 7 -3 14 4 17 19 6 14 30 -8 37 -11 3 -20 15 -20 26 0
10 -6 19 -14 19 -16 0 -26 21 -26 56 0 13 -4 24 -10 24 -5 0 -10 7 -10 15 0 8
7 15 15 15 8 0 19 9 25 21 10 17 8 21 -9 26 -12 3 -18 10 -14 20 3 8 0 19 -8
25 -11 7 -11 11 -1 15 6 2 12 10 12 18 0 7 14 18 30 25 17 7 30 16 30 20 0 12
-49 30 -65 24 -8 -4 -15 -2 -15 4 0 6 23 13 50 17 54 7 68 25 20 25 -16 0 -30
5 -30 10 0 6 14 10 30 10 17 0 30 5 30 10 0 6 -12 10 -27 10 -14 0 -23 3 -19
7 4 4 25 6 46 4 43 -3 46 0 29 31 -9 16 -7 26 10 49 26 35 27 49 1 49 -22 0
-27 15 -8 26 6 4 14 2 16 -4 6 -18 69 -15 76 4 4 11 -1 18 -14 21 -22 6 -28
23 -8 23 9 0 9 3 0 12 -10 10 -15 10 -23 -2 -7 -11 -8 -7 -3 13 5 20 2 27 -9
27 -8 0 -17 6 -20 13 -3 10 -9 10 -26 0 -25 -16 -41 -17 -41 -3 0 6 8 10 18
10 22 0 44 44 29 59 -14 14 -50 14 -64 0 -8 -8 -13 -8 -17 0 -4 6 -16 11 -27
11 -19 0 -25 11 -12 23 3 4 12 2 19 -4 16 -13 56 -8 61 7 4 11 -49 28 -74 25
-7 -1 -10 4 -7 12 2 7 0 26 -6 41 -9 23 -14 27 -35 22 -14 -4 -25 -2 -25 4 0
5 5 10 10 10 11 0 13 39 4 64 -3 9 -17 16 -30 16 -29 0 -28 -2 -8 40 10 19 13
35 7 39 -5 3 -18 22 -29 41 -10 19 -22 37 -25 40 -17 14 -28 52 -27 96 1 27
-5 82 -12 123 -10 56 -18 75 -32 79 -14 3 -18 14 -18 47 0 25 -5 45 -12 48 -8
3 -5 6 6 6 13 1 16 6 11 19 -7 16 -12 35 -32 137 -6 30 -14 40 -32 45 -22 5
-23 6 -6 20 14 12 19 12 22 3 6 -18 33 -16 33 1 0 8 -13 20 -30 28 -30 13 -37
23 -22 32 5 3 7 18 4 34 -2 16 3 43 12 60 9 17 16 47 16 67 0 26 4 35 18 36
16 1 16 2 0 6 -20 5 -23 18 -8 28 6 4 8 10 5 15 -3 5 -1 11 5 15 5 3 10 1 10
-5 0 -6 5 -8 11 -5 6 4 8 14 5 22 -4 10 0 13 16 11 15 -2 24 3 26 15 2 12 -3
17 -17 17 -30 0 -26 16 9 42 17 12 30 27 30 34 0 6 14 14 30 18 23 4 30 11 30
28 0 31 10 44 40 53 31 9 69 35 52 35 -17 0 -15 17 4 24 9 4 13 2 8 -5 -4 -7
-1 -10 7 -7 8 3 15 14 17 26 5 34 20 26 28 -15z m4934 -39 c0 -3 -7 -1 -15 6
-8 7 -15 17 -15 22 0 5 7 3 15 -6 8 -8 15 -18 15 -22z m-3455 -34 c-3 -5 -11
-10 -16 -10 -6 0 -7 5 -4 10 3 6 11 10 16 10 6 0 7 -4 4 -10z m-1352 -20 c3
-11 1 -18 -4 -14 -5 3 -9 12 -9 20 0 20 7 17 13 -6z m1253 -17 c-12 -25 -65
-46 -80 -32 -16 14 30 54 62 55 27 1 28 -1 18 -23z m1432 9 c2 -7 -3 -12 -12
-12 -9 0 -16 7 -16 16 0 17 22 14 28 -4z m62 8 c0 -5 -5 -10 -11 -10 -5 0 -7
5 -4 10 3 6 8 10 11 10 2 0 4 -4 4 -10z m2092 -13 c-2 -10 4 -17 13 -17 9 0
15 -6 12 -12 -2 -7 7 -28 21 -46 21 -29 22 -33 6 -30 -15 3 -83 100 -84 121 0
5 8 7 18 5 10 -2 16 -11 14 -21z m-437 -62 c0 -14 -6 -25 -12 -25 -14 0 -16
10 -7 34 9 24 19 19 19 -9z m445 -40 c11 -13 10 -14 -4 -9 -9 3 -16 10 -16 15
0 13 6 11 20 -6z m-4800 -95 c-1 -27 -18 11 -24 55 l-7 40 15 -40 c9 -22 16
-47 16 -55z m4384 74 c3 -9 6 -23 6 -32 -1 -12 -5 -10 -15 8 -8 14 -14 28 -15
33 0 13 18 7 24 -9z m-3659 -15 c9 -13 -23 -38 -49 -39 -15 0 -16 3 -6 15 7 8
20 15 29 15 14 0 14 2 1 10 -13 8 -13 10 2 10 9 0 20 -5 23 -11z m1034 -86
c-7 -21 -14 -32 -17 -25 -4 14 18 75 25 68 3 -3 -1 -22 -8 -43z m2651 11 c0
-13 -4 -24 -9 -24 -11 0 -22 40 -15 52 9 15 24 -2 24 -28z m-4390 -49 c0 -5
-5 -3 -10 5 -5 8 -10 20 -10 25 0 6 5 3 10 -5 5 -8 10 -19 10 -25z m3973 15
c-3 -11 -7 -20 -9 -20 -2 0 -4 9 -4 20 0 11 4 20 9 20 5 0 7 -9 4 -20z m-3943
-78 c0 -10 7 -28 16 -40 8 -12 13 -22 9 -22 -6 0 -45 62 -45 73 0 4 5 7 10 7
6 0 10 -8 10 -18z m2950 -32 c0 -5 -7 -7 -15 -4 -8 4 -15 8 -15 10 0 2 7 4 15
4 8 0 15 -4 15 -10z m75 -10 c3 -6 -1 -13 -9 -16 -24 -9 -19 -24 9 -24 36 0
45 -42 20 -102 -10 -26 39 -24 65 2 20 20 20 20 20 0 0 -23 32 -42 56 -33 14
5 16 2 12 -15 -4 -13 -1 -25 7 -30 6 -4 18 -25 25 -47 7 -22 20 -49 29 -60 24
-30 41 -63 41 -80 0 -8 8 -22 19 -31 36 -31 16 -52 -57 -60 -117 -12 -369 2
-443 25 -128 40 -233 130 -294 251 -44 87 -48 107 -20 114 13 3 29 4 37 1 17
-6 52 21 43 34 -3 6 -1 11 4 11 6 0 11 -4 11 -8 0 -4 27 -8 60 -7 33 0 55 2
49 3 -6 3 -6 9 2 18 9 11 14 11 29 1 24 -17 103 -10 96 9 -3 8 0 11 10 7 11
-4 15 0 12 13 -3 16 3 19 37 17 22 -2 56 1 75 6 48 12 48 12 55 1z m-188 -6
c-3 -3 -12 -4 -19 -1 -8 3 -5 6 6 6 11 1 17 -2 13 -5z m-2713 -131 c21 -24 34
-43 29 -43 -16 0 -123 121 -123 138 1 12 10 6 28 -18 15 -19 44 -54 66 -77z
m4237 42 c3 2 5 -5 5 -16 0 -19 -1 -19 -18 3 -10 13 -18 28 -17 33 0 6 6 2 13
-7 7 -10 15 -16 17 -13z m-503 -63 c-7 -18 -16 -32 -20 -32 -11 0 -10 7 8 41
20 39 27 33 12 -9z m-3613 -77 c19 -15 18 -15 -10 -1 -16 8 -39 22 -50 31 -19
15 -18 15 10 1 17 -8 39 -22 50 -31z m3581 7 c-8 -16 -23 -35 -32 -43 -14 -11
-12 -4 6 29 26 46 49 59 26 14z m-3451 -70 c-3 -3 -11 0 -18 7 -9 10 -8 11 6
5 10 -3 15 -9 12 -12z m42 -8 c-3 -3 -12 -4 -19 -1 -8 3 -5 6 6 6 11 1 17 -2
13 -5z m471 -81 c-10 -2 -28 -2 -40 0 -13 2 -5 4 17 4 22 1 32 -1 23 -4z m152
-3 c0 -6 -27 -10 -60 -10 -33 0 -60 4 -60 10 0 6 27 10 60 10 33 0 60 -4 60
-10z m3554 -226 c3 -9 6 -32 6 -51 0 -30 -2 -34 -15 -23 -9 7 -15 29 -15 51 0
40 13 52 24 23z m-6214 -75 c0 -18 -4 -28 -10 -24 -5 3 -10 20 -10 36 0 18 4
28 10 24 6 -3 10 -20 10 -36z m-5 -82 c10 -36 14 -83 11 -156 -2 -57 1 -138 6
-180 5 -42 11 -115 13 -164 2 -51 8 -94 15 -102 7 -9 10 -18 6 -22 -7 -8 -5
-10 -38 52 -30 58 -60 153 -52 166 3 5 -5 37 -17 72 -18 48 -24 88 -26 176 -2
105 7 136 21 71 3 -14 3 3 1 38 -3 56 -1 62 16 62 16 0 18 5 13 26 -13 51 15
15 31 -39z m6231 49 c15 -16 20 -86 5 -86 -5 0 -12 18 -16 40 -4 22 -11 40
-16 40 -5 0 -9 5 -9 10 0 15 19 12 36 -4z m19 -316 c10 -31 -5 -45 -20 -18 -6
12 -10 26 -8 31 8 13 22 7 28 -13z m-4845 -140 c0 -5 -9 -10 -20 -10 -11 0
-20 5 -20 10 0 6 9 10 20 10 11 0 20 -4 20 -10z m27 -92 c-3 -8 -6 -5 -6 6 -1
11 2 17 5 13 3 -3 4 -12 1 -19z m4733 -19 c0 -11 -4 -17 -10 -14 -5 3 -10 13
-10 21 0 8 5 14 10 14 6 0 10 -9 10 -21z m-4700 -9 c0 -5 -4 -10 -10 -10 -5 0
-10 5 -10 10 0 6 5 10 10 10 6 0 10 -4 10 -10z m4720 -141 c0 -11 -4 -18 -10
-14 -5 3 -7 12 -3 20 7 21 13 19 13 -6z m-4880 -189 c0 -5 -4 -10 -10 -10 -5
0 -10 5 -10 10 0 6 5 10 10 10 6 0 10 -4 10 -10z m-1289 -32 c0 -7 3 -22 6
-33 13 -52 15 -80 6 -70 -9 8 -33 90 -33 109 0 12 20 5 21 -6z m6014 -56 c1
-29 -3 -38 -16 -38 -13 0 -15 5 -9 21 5 11 11 28 14 38 8 26 11 21 11 -21z
m-5955 -117 c0 -5 -5 -3 -10 5 -5 8 -10 20 -10 25 0 6 5 3 10 -5 5 -8 10 -19
10 -25z m5863 -2 c-3 -8 2 -13 15 -13 18 0 19 -4 13 -27 -4 -16 -6 -34 -4 -40
3 -8 -4 -13 -17 -13 -21 0 -22 -3 -16 -42 5 -40 5 -41 -9 -24 -8 11 -15 34
-15 52 0 18 -4 34 -9 36 -5 2 -13 17 -17 33 -7 27 -6 29 9 17 9 -8 17 -23 19
-34 2 -12 9 -23 16 -26 17 -5 16 45 -2 51 -12 5 -13 11 -3 36 7 18 14 26 18
19 4 -6 5 -17 2 -25z m56 -6 c1 -5 -6 -1 -15 7 -8 9 -12 21 -8 28 5 8 10 6 15
-8 4 -10 8 -23 8 -27z m-119 13 c0 -5 -2 -10 -4 -10 -3 0 -8 5 -11 10 -3 6 -1
10 4 10 6 0 11 -4 11 -10z m-5683 -148 c3 -20 3 -34 -1 -30 -4 3 -7 8 -6 10 1
2 -5 20 -14 42 -20 49 -21 67 0 38 8 -12 18 -39 21 -60z m-57 -2 c0 -13 -1
-13 -10 0 -5 8 -10 22 -10 30 0 13 1 13 10 0 5 -8 10 -22 10 -30z m5711 -23
c-17 -17 -24 -1 -10 25 12 21 14 21 17 4 2 -10 -1 -23 -7 -29z m-197 -163 c10
-25 -1 -29 -14 -5 -6 12 -7 21 -1 21 5 0 12 -7 15 -16z m36 -124 c13 -36 28
-74 34 -85 5 -11 10 -27 11 -35 0 -8 7 -15 15 -15 24 -1 40 -15 40 -35 0 -13
-5 -17 -15 -14 -9 4 -15 1 -15 -7 0 -22 16 -40 30 -37 9 2 22 -24 38 -75 13
-43 23 -80 20 -82 -2 -2 -17 -1 -34 4 -25 7 -29 12 -28 39 1 18 -1 32 -5 32
-10 0 -29 51 -36 97 -4 24 -10 45 -15 48 -4 3 -14 29 -20 57 -7 29 -22 66 -32
81 -11 15 -18 37 -15 47 3 11 2 18 -2 17 -7 -2 -11 7 -11 30 0 28 15 2 40 -67z
m214 24 c8 -21 8 -24 -5 -24 -5 0 -7 5 -4 10 3 6 1 10 -4 10 -6 0 -11 5 -11
10 0 16 17 12 24 -6z m-103 -47 c-17 -17 -24 -1 -9 22 11 18 14 19 16 5 2 -9
-1 -21 -7 -27z m119 -8 c0 -5 -7 -9 -15 -9 -11 0 -15 -12 -15 -47 -1 -27 -1
-75 -2 -108 l0 -60 -14 33 c-8 17 -20 32 -27 32 -8 0 -13 22 -14 68 l-3 67 38
22 c36 21 52 21 52 2z m-5596 -164 c9 -20 21 -72 29 -116 21 -125 2 -196 -22
-81 -7 31 -16 71 -21 87 -7 25 -14 110 -11 138 2 16 11 5 25 -28z m5614 -128
c5 -24 -15 -21 -21 4 -3 13 -1 19 6 16 7 -2 13 -11 15 -20z m-1788 3 c0 -5 -2
-10 -4 -10 -3 0 -8 5 -11 10 -3 6 -1 10 4 10 6 0 11 -4 11 -10z m1860 -282 c0
-12 -24 -10 -38 4 -20 20 -13 28 13 16 14 -6 25 -15 25 -20z m95 -86 c-3 -3
-11 0 -18 7 -9 10 -8 11 6 5 10 -3 15 -9 12 -12z m71 -3 c11 -12 26 -18 37
-15 10 2 16 2 13 -1 -3 -4 -1 -12 5 -20 9 -10 8 -13 -3 -13 -17 0 -98 69 -82
70 6 0 19 -9 30 -21z m-906 -400 c0 -6 -4 -7 -10 -4 -5 3 -10 11 -10 16 0 6 5
7 10 4 6 -3 10 -11 10 -16z m-2505 -24 c18 -20 28 -22 87 -20 37 1 75 8 83 15
13 10 19 10 35 -5 11 -10 26 -15 34 -12 9 4 31 0 51 -8 19 -9 40 -14 47 -13 8
2 12 -7 10 -24 -3 -22 2 -30 22 -38 14 -5 32 -7 40 -4 8 3 24 1 35 -6 18 -9
23 -6 40 21 l20 32 12 -26 c7 -15 17 -27 22 -27 5 0 5 -5 -1 -13 -13 -15 -19
-157 -8 -175 4 -7 1 -15 -8 -18 -9 -3 -16 -15 -16 -26 0 -11 -7 -26 -15 -35
-14 -14 -14 -17 1 -34 17 -19 17 -20 -2 -33 -29 -21 -68 -56 -62 -56 3 0 19 7
34 15 16 8 44 15 63 15 32 0 33 -1 29 -32 -3 -18 -8 -41 -13 -50 -5 -13 -3
-18 8 -18 8 0 17 6 20 13 3 9 16 12 35 9 16 -2 33 1 36 7 4 6 16 11 27 11 13
0 19 7 19 22 0 25 27 58 47 58 7 0 13 7 13 15 0 8 5 15 10 15 6 0 10 6 10 13
0 18 60 62 61 45 1 -7 4 -2 8 12 4 14 16 29 27 34 12 5 25 21 31 36 25 67 120
25 107 -47 -3 -17 -1 -39 4 -49 7 -13 5 -28 -7 -52 -12 -27 -13 -36 -3 -39 6
-3 12 -12 12 -20 0 -12 3 -13 14 -4 21 18 40 -12 32 -53 -4 -22 -2 -36 5 -38
15 -5 -10 -48 -28 -48 -8 0 -13 -15 -13 -40 0 -22 -4 -40 -10 -40 -5 0 -10
-18 -10 -40 0 -29 4 -40 15 -40 11 0 15 -11 15 -40 0 -22 -4 -40 -10 -40 -18
0 -11 -22 9 -27 12 -3 21 -17 25 -36 3 -18 8 -47 12 -64 4 -21 2 -33 -4 -33
-6 0 -12 -12 -14 -27 -2 -16 -8 -28 -15 -28 -20 0 -25 -13 -13 -34 14 -28 -26
-121 -52 -121 -10 0 -18 -7 -18 -15 0 -8 4 -15 9 -15 15 0 22 -48 10 -74 -10
-20 -9 -30 5 -51 9 -14 14 -30 11 -35 -3 -5 2 -13 11 -18 23 -13 8 -33 -20
-26 -21 5 -22 2 -23 -50 -1 -39 -8 -65 -23 -86 -11 -16 -24 -52 -27 -81 -3
-28 -12 -53 -18 -56 -7 -2 -11 -13 -8 -23 3 -11 -6 -33 -20 -52 -29 -37 -46
-101 -47 -166 0 -28 -5 -45 -15 -48 -8 -4 -15 -17 -15 -30 0 -14 -6 -40 -14
-59 -9 -20 -12 -49 -9 -70 4 -24 2 -35 -7 -35 -7 0 -10 -6 -7 -14 3 -8 -4 -21
-18 -30 -14 -9 -27 -27 -31 -40 -3 -13 -17 -29 -30 -35 -14 -6 -27 -18 -30
-26 -8 -20 -58 -19 -74 0 -10 12 -10 19 -2 27 21 21 13 52 -18 78 -33 27 -40
64 -13 74 10 4 13 10 7 16 -7 7 -25 4 -53 -7 l-42 -17 26 -10 27 -11 -61 -63
c-33 -34 -62 -70 -65 -80 -10 -29 -103 -125 -110 -113 -13 21 -26 11 -20 -14
5 -20 2 -25 -11 -25 -10 0 -24 8 -32 18 -13 15 -13 15 -4 -5 12 -24 15 -63 3
-48 -4 6 -24 18 -44 29 -34 17 -40 17 -75 4 -21 -9 -44 -13 -50 -11 -7 3 -13
0 -13 -6 0 -6 -7 -11 -15 -11 -8 0 -15 7 -15 16 0 10 -6 14 -15 10 -8 -3 -15
-1 -15 5 0 5 -23 9 -53 8 -51 -2 -94 12 -110 35 -4 6 -12 28 -17 49 -6 21 -17
37 -25 37 -8 0 -15 7 -15 14 0 8 -12 21 -27 28 -19 9 -30 27 -40 62 -10 32
-21 50 -34 53 -14 4 -19 14 -19 39 0 22 -6 37 -15 40 -8 4 -15 14 -15 24 0 23
-13 32 -34 24 -17 -6 -22 -34 -7 -34 18 0 -1 -73 -26 -98 -7 -7 -13 -26 -13
-40 0 -15 -11 -39 -25 -54 -23 -25 -23 -28 -8 -37 17 -9 16 -11 -1 -30 -11
-12 -16 -24 -12 -29 5 -4 15 3 23 15 19 28 33 30 33 5 0 -15 -13 -22 -56 -31
-55 -13 -83 -8 -53 9 11 6 14 19 11 44 -4 38 -22 50 -22 16 0 -24 -22 -26 -40
-5 -7 8 -19 15 -26 15 -8 0 -14 9 -14 20 0 11 -5 20 -10 20 -6 0 -15 12 -21
27 -7 19 -13 24 -18 15 -9 -15 -22 -2 -36 33 -7 18 -8 18 -17 -7 -6 -18 -17
-28 -29 -28 -10 0 -19 -4 -19 -10 0 -5 -7 -10 -15 -10 -8 0 -15 7 -15 15 0 8
7 15 15 15 8 0 15 9 15 20 0 22 -26 28 -33 8 -3 -10 -9 -10 -28 -1 -13 7 -46
15 -72 17 -27 3 -60 12 -74 21 -13 9 -31 14 -39 11 -8 -3 -14 -1 -14 4 0 25
-27 6 -42 -28 -16 -37 -18 -39 -62 -38 -31 1 -46 -3 -46 -11 0 -17 -12 -16
-36 2 -10 8 -27 15 -36 15 -9 0 -33 9 -52 21 -39 22 -46 17 -19 -13 20 -23 11
-32 -46 -46 -35 -9 -47 -8 -58 4 -8 8 -20 14 -28 14 -18 0 -45 44 -45 74 0 14
-4 28 -10 31 -9 6 6 43 23 56 9 7 -7 54 -23 64 -18 11 0 25 26 19 22 -6 24 -3
24 29 0 45 8 67 26 67 8 0 14 2 14 5 0 11 -56 59 -67 57 -7 -2 -13 2 -13 8 0
5 11 10 24 10 31 0 37 17 17 52 -13 23 -14 31 -3 48 17 27 15 38 -8 45 -18 6
-19 8 -4 30 9 13 24 27 35 30 16 5 19 16 19 72 0 46 -4 69 -15 77 -21 16 -22
79 -2 110 10 15 17 41 15 62 -1 19 2 38 7 42 19 14 17 54 -5 77 -14 15 -18 25
-11 30 6 3 11 16 11 29 0 25 27 86 44 99 8 6 7 10 -1 14 -7 2 -13 13 -13 24 0
11 -7 22 -15 25 -20 8 -19 54 2 69 15 11 15 18 6 49 -6 20 -9 45 -6 56 3 11 0
20 -6 20 -18 0 -12 39 9 57 19 17 19 17 0 30 -19 14 -28 63 -12 63 5 0 9 15
10 33 5 101 15 137 37 137 8 0 11 8 8 19 -3 10 3 32 12 47 l16 29 -6 -27 c-5
-25 -2 -28 19 -28 14 0 32 9 40 22 14 19 16 20 16 4 0 -10 5 -16 13 -13 6 2
11 15 9 27 -2 24 -2 24 20 -2 19 -22 29 -26 63 -22 65 7 118 4 132 -8 11 -9
15 -7 19 9 4 15 11 19 25 16 13 -4 19 -1 17 8 -2 11 10 14 50 14 29 0 56 5 60
11 14 21 50 28 160 29 101 0 112 -1 112 -17 0 -10 5 -18 10 -18 6 0 10 4 10
10 0 5 16 17 35 26 19 9 35 21 35 27 0 7 3 8 10 1 5 -5 25 -8 44 -6 29 3 36
10 49 43 13 32 20 39 43 39 25 0 26 15 1 15 -8 0 -11 16 -10 42 1 34 -2 43
-18 48 -12 4 -19 15 -19 31 0 13 -4 24 -10 24 -5 0 -17 17 -25 37 -9 21 -21
41 -28 45 -7 5 -2 8 15 8 36 0 58 -10 58 -26 0 -8 7 -14 16 -14 11 0 15 6 11
20 -7 27 10 36 31 17 13 -12 22 -13 36 -5 12 7 43 8 85 3 93 -11 132 -9 149 9
23 22 101 11 127 -19z m608 -122 c4 -34 1 -52 -9 -63 -12 -12 -14 -10 -14 17
0 18 -6 33 -15 37 -8 3 -15 10 -15 16 0 6 5 8 11 5 6 -4 13 2 16 14 9 35 20
24 26 -26z m385 5 c-4 -27 -28 -36 -28 -10 0 20 8 32 22 32 5 0 8 -10 6 -22z
m2682 -48 c6 -12 23 -25 36 -31 29 -10 27 -33 -2 -37 -14 -2 -26 9 -42 39 -25
47 -26 49 -12 49 5 0 14 -9 20 -20z m-3100 -17 c0 -41 -16 -61 -23 -31 -11 38
-8 58 8 58 10 0 15 -10 15 -27z m3235 7 c3 -5 -1 -10 -10 -10 -9 0 -13 5 -10
10 3 6 8 10 10 10 2 0 7 -4 10 -10z m-835 -80 c0 -5 -6 -10 -14 -10 -8 0 -18
5 -21 10 -3 6 3 10 14 10 12 0 21 -4 21 -10z m3 -27 c3 -5 1 -19 -4 -32 -10
-26 -22 -20 -34 17 -5 18 -2 22 14 22 11 0 22 -3 24 -7z m-1944 -65 c0 -28 -2
-30 -9 -13 -12 28 -12 45 0 45 6 0 10 -15 9 -32z m2350 -22 c14 -14 30 -26 37
-26 7 0 18 -9 24 -20 14 -25 -3 -27 -28 -2 -10 9 -25 18 -33 20 -29 7 -59 33
-59 53 0 16 4 18 18 10 9 -5 28 -21 41 -35z m-4769 13 c0 -5 -4 -9 -10 -9 -5
0 -10 7 -10 16 0 8 5 12 10 9 6 -3 10 -10 10 -16z m4356 0 c3 -6 2 -15 -4 -21
-6 -6 -11 -2 -15 11 -5 22 7 29 19 10z m-96 -41 c0 -25 -3 -29 -10 -18 -13 20
-13 50 0 50 6 0 10 -15 10 -32z m823 2 c3 -11 1 -20 -4 -20 -5 0 -9 2 -9 4 0
2 -3 11 -6 20 -3 9 -2 16 4 16 5 0 12 -9 15 -20z m-681 -35 c4 -5 8 -21 8 -35
-1 -24 -1 -25 -16 -5 -8 11 -20 27 -27 35 -30 35 -30 41 0 28 15 -7 31 -17 35
-23z m-682 -24 c0 -20 -15 -18 -31 3 -26 33 -24 40 6 20 14 -9 25 -20 25 -23z
m1055 -10 c-11 -10 -35 11 -35 31 l0 23 20 -25 c10 -14 17 -26 15 -29z m-508
-3 c-3 -7 -5 -2 -5 12 0 14 2 19 5 13 2 -7 2 -19 0 -25z m548 22 c3 -5 1 -10
-4 -10 -6 0 -11 5 -11 10 0 6 2 10 4 10 3 0 8 -4 11 -10z m-2390 -20 c3 -5 1
-10 -4 -10 -6 0 -11 5 -11 10 0 6 2 10 4 10 3 0 8 -4 11 -10z m2485 -31 c0 -6
-4 -7 -10 -4 -5 3 -10 11 -10 16 0 6 5 7 10 4 6 -3 10 -11 10 -16z m-60 -39
c36 -28 98 -47 80 -25 -13 16 2 28 24 19 12 -5 14 -10 6 -19 -7 -9 -8 -15 -1
-19 17 -11 -4 -50 -30 -57 -17 -5 -11 -7 23 -8 47 -1 47 -1 42 28 -4 18 -1 32
6 36 10 6 12 -6 8 -56 -11 -127 -126 -303 -291 -446 -65 -56 -140 -94 -93 -47
8 7 12 23 9 34 -5 19 -8 18 -39 -14 -19 -19 -34 -42 -34 -52 0 -10 -5 -14 -15
-10 -9 3 -18 -1 -21 -9 -4 -8 -11 -15 -17 -15 -5 0 -3 8 5 18 9 9 18 36 21 58
2 23 26 85 51 137 25 53 46 103 46 111 0 22 40 96 52 96 5 0 7 -8 4 -17 -2
-10 -8 -49 -12 -88 -4 -38 -13 -79 -20 -90 -8 -11 -14 -35 -14 -54 0 -34 1
-34 14 -15 8 11 17 38 21 60 3 21 10 48 15 59 16 37 25 85 34 173 3 29 9 60
14 70 4 9 7 51 5 92 -1 41 -1 80 2 87 6 17 61 -3 105 -37z m-1160 19 c0 -5 -7
-9 -15 -9 -15 0 -20 12 -9 23 8 8 24 -1 24 -14z m-18 -44 c6 -29 -7 -34 -15
-6 -4 17 0 31 9 31 1 0 4 -11 6 -25z m1006 1 c2 -10 -4 -23 -13 -30 -15 -11
-16 -16 -5 -36 10 -19 10 -24 -4 -32 -11 -6 -16 -23 -16 -57 0 -52 -16 -111
-31 -111 -11 0 -11 2 1 75 6 33 13 86 16 118 6 75 7 81 19 89 15 11 30 4 33
-16z m-850 -34 c9 -3 11 3 6 22 -7 30 2 33 28 9 10 -9 18 -30 18 -49 0 -36 15
-55 17 -22 3 30 11 34 30 15 16 -15 15 -18 -1 -36 -10 -11 -15 -24 -12 -29 7
-11 -13 -74 -27 -83 -5 -4 -7 -15 -5 -25 4 -22 -32 -96 -50 -102 -18 -6 -15
33 4 49 8 7 13 21 11 31 -3 10 -1 18 5 18 5 0 7 4 4 8 -7 12 -66 2 -66 -10 0
-6 6 -8 14 -5 8 3 13 0 12 -8 -4 -25 -13 -26 -50 -5 l-36 22 17 36 c9 21 18
56 21 80 2 23 8 42 14 42 5 0 7 13 3 30 -4 19 -3 30 4 30 6 0 11 8 12 18 1 11
3 9 8 -7 4 -14 12 -26 19 -29z m550 13 c6 -14 18 -25 27 -25 11 0 15 -11 15
-44 0 -57 -8 -76 -31 -76 -10 0 -19 -4 -19 -9 0 -5 8 -8 18 -7 11 1 18 -7 20
-25 4 -38 -34 -211 -57 -256 -11 -21 -27 -53 -35 -71 -9 -18 -20 -31 -26 -27
-6 4 -5 12 5 21 8 9 15 20 15 25 0 14 -27 11 -34 -3 -4 -7 -4 -2 -1 12 3 14
10 50 16 80 6 30 15 64 19 75 5 11 11 36 14 55 3 19 8 46 11 60 8 34 14 103
15 178 0 66 9 78 28 37z m-293 -55 c4 -6 2 -17 -5 -25 -7 -9 -8 -15 0 -20 5
-3 10 -13 10 -21 0 -11 -6 -13 -21 -9 -15 5 -19 4 -15 -4 4 -6 14 -11 23 -11
12 0 14 -7 9 -35 -4 -19 -13 -47 -21 -62 -8 -15 -15 -35 -15 -43 -1 -8 -12
-28 -26 -45 -24 -29 -25 -29 -39 -11 -13 17 -15 17 -15 3 0 -19 -24 -34 -65
-38 -27 -4 -30 -1 -33 27 -2 21 4 38 23 58 16 18 25 38 25 61 0 19 5 37 10 40
6 3 10 18 10 33 0 15 9 41 20 57 l20 30 0 -45 c0 -33 3 -41 10 -30 5 8 10 30
10 48 0 33 16 42 37 21 9 -9 10 -7 6 10 -4 16 -1 21 15 21 12 0 24 -5 27 -10z
m192 -51 c-16 -25 -31 -19 -35 14 -3 26 -2 27 22 16 21 -10 23 -14 13 -30z
m-7 -39 c0 -5 -2 -10 -4 -10 -3 0 -8 5 -11 10 -3 6 -1 10 4 10 6 0 11 -4 11
-10z m194 -42 c-11 -84 -26 -148 -33 -148 -4 0 -3 28 2 63 5 34 11 77 13 95 3
17 9 32 15 32 5 0 7 -18 3 -42z m-190 -43 c-2 -53 -19 -123 -38 -160 -9 -16
-16 -38 -16 -48 0 -10 -7 -20 -15 -23 -11 -5 -15 -17 -13 -43 3 -31 0 -36 -17
-33 -10 2 -31 14 -46 25 -14 12 -35 27 -45 34 -18 11 -18 13 9 38 15 14 27 35
27 46 0 10 4 27 10 37 5 9 25 52 45 95 35 76 37 78 68 75 30 -3 32 -5 31 -43z
m241 -44 c-4 -17 -11 -31 -17 -31 -6 0 -7 7 -4 16 3 9 6 27 6 42 0 19 3 23 11
15 7 -7 8 -24 4 -42z m-575 -148 c1 -31 -55 -46 -66 -18 -4 10 -13 13 -25 10
-11 -4 -19 -2 -19 5 0 6 20 9 55 8 30 -2 55 -4 55 -5z m587 -50 c-7 -35 -37
-106 -42 -101 -7 7 29 128 38 128 5 0 7 -12 4 -27z m-260 -71 c10 -6 9 -13 -3
-30 -20 -29 -44 -28 -44 1 0 36 19 47 47 29z m163 -7 c0 -5 -9 -21 -20 -35
-11 -14 -20 -29 -20 -33 0 -26 -75 -160 -91 -164 -11 -3 -19 -11 -19 -18 0
-14 -28 -40 -35 -33 -9 8 -10 82 -2 110 6 22 4 26 -8 22 -21 -9 -19 19 3 39
14 13 21 14 30 5 9 -9 12 -9 12 3 0 20 53 59 81 59 15 0 19 4 15 16 -3 8 -2
12 4 9 6 -3 10 2 10 12 0 12 7 19 20 19 11 0 20 -5 20 -11z m-4540 -117 c0
-16 -3 -19 -11 -11 -6 6 -8 16 -5 22 11 17 16 13 16 -11z m4610 12 c0 -5 -4
-10 -10 -10 -5 0 -10 5 -10 10 0 6 5 10 10 10 6 0 10 -4 10 -10z m-41 -19 c9
-6 10 -11 2 -15 -13 -8 -31 1 -31 15 0 11 11 11 29 0z m-49 -56 c-7 -8 -17
-15 -22 -15 -6 0 -5 7 2 15 7 8 17 15 22 15 6 0 5 -7 -2 -15z m-760 -56 c0 -5
7 -9 15 -9 8 0 15 -4 15 -10 0 -5 -7 -10 -15 -10 -18 0 -20 -30 -2 -31 6 -1 1
-5 -13 -9 -21 -7 -17 -8 21 -9 38 -1 50 -6 63 -26 19 -28 12 -77 -9 -69 -7 3
-16 1 -20 -5 -3 -6 -22 -11 -41 -11 -19 0 -34 -2 -34 -4 0 -18 16 -36 32 -36
82 0 58 -72 -32 -99 -47 -13 -127 -12 -143 3 -6 6 -29 20 -49 29 -41 20 -53
33 -38 42 5 3 10 1 10 -5 0 -6 5 -8 10 -5 11 7 -12 35 -29 35 -6 0 -11 5 -11
11 0 7 -11 9 -26 6 -37 -7 -61 21 -62 72 -1 35 3 42 24 47 13 3 24 10 24 15 0
5 6 9 14 9 7 0 19 7 26 15 7 8 23 15 36 15 12 0 26 5 29 10 8 12 42 13 47 1 5
-12 48 -24 48 -13 0 6 -8 13 -17 17 -15 5 -12 9 16 21 44 18 47 18 27 -5 -16
-17 -15 -18 21 -17 33 1 38 4 36 23 -2 16 2 21 12 17 8 -4 15 -10 15 -15z
m-1065 -251 c14 -6 25 -15 25 -20 0 -4 6 -8 14 -8 9 0 16 -12 18 -32 2 -18 8
-33 13 -33 6 0 11 15 13 33 3 34 22 45 22 12 0 -10 7 -23 16 -28 9 -5 14 -15
10 -21 -4 -6 -12 -9 -17 -6 -5 4 -9 -3 -9 -14 0 -19 2 -20 20 -9 15 10 22 10
32 0 9 -9 9 -12 -3 -12 -18 0 -49 -35 -49 -56 0 -13 4 -13 28 4 47 32 52 34
52 18 0 -9 -6 -16 -14 -16 -7 0 -16 -15 -20 -32 -5 -27 -2 -36 16 -51 19 -16
20 -21 9 -39 -9 -15 -10 -23 -2 -31 6 -6 11 -17 11 -25 0 -10 -3 -10 -16 2 -8
9 -19 16 -23 16 -5 0 -6 12 -3 27 5 27 5 27 -31 -10 l-35 -38 -41 20 c-54 28
-83 27 -98 -4 -7 -16 -8 -25 -1 -25 6 0 5 -6 -2 -15 -7 -9 -9 -19 -5 -23 4 -4
10 -1 12 6 3 6 9 10 13 7 19 -12 -3 -35 -32 -35 -24 0 -32 6 -41 30 -8 21 -18
30 -34 30 -24 0 -24 0 6 58 7 14 7 22 1 22 -5 0 -10 10 -10 23 0 23 13 49 24
48 3 -1 5 0 5 2 -1 1 8 21 19 44 15 28 18 43 10 45 -18 6 0 59 23 65 12 4 16
9 10 12 -7 5 -3 18 12 39 26 37 20 35 52 20z m785 -8 c0 -5 -5 -10 -11 -10 -5
0 -7 5 -4 10 3 6 8 10 11 10 2 0 4 -4 4 -10z m-4100 -79 c0 -11 -26 -22 -34
-14 -12 12 -5 23 14 23 11 0 20 -4 20 -9z m4137 -27 c-3 -3 -12 -4 -19 -1 -8
3 -5 6 6 6 11 1 17 -2 13 -5z m336 -71 c-7 -2 -19 -2 -25 0 -7 3 -2 5 12 5 14
0 19 -2 13 -5z m-1158 -183 c3 -5 -1 -10 -10 -10 -9 0 -13 5 -10 10 3 6 8 10
10 10 2 0 7 -4 10 -10z m40 -20 c-3 -5 -11 -10 -16 -10 -6 0 -7 5 -4 10 3 6
11 10 16 10 6 0 7 -4 4 -10z m-4230 -60 c3 -5 -1 -10 -9 -10 -9 0 -16 5 -16
10 0 6 4 10 9 10 6 0 13 -4 16 -10z m370 0 c3 -5 -1 -10 -10 -10 -9 0 -13 5
-10 10 3 6 8 10 10 10 2 0 7 -4 10 -10z m1042 -222 c-3 -7 -5 -2 -5 12 0 14 2
19 5 13 2 -7 2 -19 0 -25z m881 -575 c-1 -21 -6 -41 -12 -45 -8 -6 -8 -10 0
-15 5 -5 11 -32 12 -62 l2 -54 -40 43 c-22 24 -40 40 -40 36 0 -4 -14 4 -31
18 -17 14 -35 26 -40 26 -5 0 -9 13 -9 29 0 26 4 30 40 36 22 4 40 10 40 14 0
4 18 8 40 9 l39 3 -1 -38z m-1758 -23 c0 -5 -2 -10 -4 -10 -3 0 -8 5 -11 10
-3 6 -1 10 4 10 6 0 11 -4 11 -10z m1465 -9 c8 -14 -10 -22 -30 -15 -13 5 -14
8 -3 15 17 11 26 11 33 0z m-1495 -21 c0 -5 -2 -10 -4 -10 -3 0 -8 5 -11 10
-3 6 -1 10 4 10 6 0 11 -4 11 -10z m190 -25 c0 -8 5 -15 12 -15 20 0 48 -32
48 -57 0 -18 -5 -23 -25 -23 -17 0 -23 -4 -19 -14 8 -20 -12 -28 -26 -11 -7 8
-17 12 -22 9 -18 -11 -48 28 -48 63 0 23 -5 33 -15 33 -13 0 -14 -4 -5 -20 15
-29 -12 -37 -44 -13 -42 30 -29 48 37 51 46 2 57 0 57 -13 0 -8 5 -15 10 -15
6 0 10 9 10 20 0 11 7 20 15 20 8 0 15 -7 15 -15z m1633 -22 c-7 -2 -19 -2
-25 0 -7 3 -2 5 12 5 14 0 19 -2 13 -5z m-1449 -24 c-9 -15 -34 -10 -28 5 3 8
12 12 20 9 8 -3 11 -9 8 -14z m-60 -22 c-7 -19 -29 -23 -39 -6 -8 13 27 41 38
30 4 -4 5 -15 1 -24z m848 5 c-7 -2 -12 -12 -12 -23 0 -10 -7 -19 -15 -19 -9
0 -12 6 -8 18 10 28 25 42 36 35 8 -5 7 -8 -1 -11z m-724 -24 c16 -16 15 -31
-2 -25 -8 3 -22 -1 -33 -9 -17 -14 -16 -14 5 -4 19 9 22 8 22 -7 -1 -22 -44
-55 -63 -47 -21 8 -40 49 -33 72 5 15 17 22 44 25 20 2 39 4 43 5 3 1 10 -3
17 -10z m812 3 c0 -6 -4 -13 -10 -16 -5 -3 -10 1 -10 9 0 9 5 16 10 16 6 0 10
-4 10 -9z m-310 -32 c20 -3 26 -10 28 -37 l3 -33 -38 7 c-21 4 -38 7 -39 8 -1
0 1 18 4 40 2 21 7 34 11 28 3 -5 17 -12 31 -13z m-670 -11 c0 -16 -3 -19 -11
-11 -6 6 -8 16 -5 22 11 17 16 13 16 -11z m930 -23 c0 -30 -25 -34 -40 -6 -7
14 -6 21 3 24 26 11 37 6 37 -18z m-75 6 c7 -12 -12 -24 -25 -16 -11 7 -4 25
10 25 5 0 11 -4 15 -9z m-637 -19 c2 -7 -3 -12 -12 -12 -9 0 -16 7 -16 16 0
17 22 14 28 -4z m582 -22 c0 -5 -4 -10 -9 -10 -6 0 -13 5 -16 10 -3 6 1 10 9
10 9 0 16 -4 16 -10z m-300 -37 c0 -10 -9 -13 -27 -11 -38 4 -42 27 -4 26 20
-1 31 -6 31 -15z m40 -23 c0 -5 -4 -10 -10 -10 -5 0 -10 5 -10 10 0 6 5 10 10
10 6 0 10 -4 10 -10z"/>
<path d="M6112 10608 c2 -6 10 -14 16 -16 7 -2 10 2 6 12 -7 18 -28 22 -22 4z"/>
<path d="M6226 10568 c10 -14 21 -24 23 -22 3 3 -6 15 -18 27 l-24 22 19 -27z"/>
<path d="M6176 10563 c5 -5 12 -12 16 -18 4 -6 8 -2 8 8 0 9 -7 17 -17 17 -9
0 -12 -3 -7 -7z"/>
<path d="M6420 10527 c0 -3 12 -12 26 -22 15 -9 23 -12 20 -6 -7 11 -46 35
-46 28z"/>
<path d="M5969 10302 c6 -12 16 -24 22 -28 8 -4 8 -1 0 14 -6 12 -16 24 -22
28 -8 4 -8 1 0 -14z"/>
<path d="M6310 10131 c0 -5 5 -13 10 -16 6 -3 10 -2 10 4 0 5 -4 13 -10 16 -5
3 -10 2 -10 -4z"/>
<path d="M7345 10031 c-3 -5 -1 -12 5 -16 5 -3 10 1 10 9 0 18 -6 21 -15 7z"/>
<path d="M7276 9987 c3 -10 9 -15 12 -12 3 3 0 11 -7 18 -10 9 -11 8 -5 -6z"/>
<path d="M6001 9824 c0 -11 3 -14 6 -6 3 7 2 16 -1 19 -3 4 -6 -2 -5 -13z"/>
<path d="M6021 9784 c0 -11 3 -14 6 -6 3 7 2 16 -1 19 -3 4 -6 -2 -5 -13z"/>
<path d="M5460 9780 c0 -5 5 -10 10 -10 6 0 10 5 10 10 0 6 -4 10 -10 10 -5 0
-10 -4 -10 -10z"/>
<path d="M6365 9700 c3 -5 8 -10 11 -10 2 0 4 5 4 10 0 6 -5 10 -11 10 -5 0
-7 -4 -4 -10z"/>
<path d="M6747 9617 c-3 -9 -2 -19 4 -23 15 -9 18 -2 9 20 -6 17 -7 18 -13 3z"/>
<path d="M6820 9591 c0 -6 5 -13 10 -16 6 -3 10 1 10 9 0 9 -4 16 -10 16 -5 0
-10 -4 -10 -9z"/>
<path d="M4857 9266 c-18 -14 -22 -26 -9 -26 15 0 45 27 36 33 -5 3 -17 0 -27
-7z"/>
<path d="M4722 9170 c0 -14 2 -19 5 -12 2 6 2 18 0 25 -3 6 -5 1 -5 -13z"/>
<path d="M4560 8795 c0 -38 3 -45 20 -45 22 0 26 23 10 64 -15 40 -30 31 -30
-19z"/>
<path d="M4603 8825 c-8 -22 6 -33 17 -15 13 20 12 30 0 30 -6 0 -13 -7 -17
-15z"/>
<path d="M4538 8643 c7 -3 16 -2 19 1 4 3 -2 6 -13 5 -11 0 -14 -3 -6 -6z"/>
<path d="M5200 8445 c0 -17 2 -18 24 -9 23 9 20 24 -4 24 -11 0 -20 -7 -20
-15z"/>
<path d="M6180 8376 c0 -9 7 -16 16 -16 9 0 14 5 12 12 -6 18 -28 21 -28 4z"/>
<path d="M6210 8256 c0 -9 5 -16 10 -16 6 0 10 4 10 9 0 6 -4 13 -10 16 -5 3
-10 -1 -10 -9z"/>
<path d="M5675 8210 c3 -5 8 -10 11 -10 2 0 4 5 4 10 0 6 -5 10 -11 10 -5 0
-7 -4 -4 -10z"/>
<path d="M6226 8079 c-11 -10 -16 -22 -11 -26 4 -5 9 -3 12 3 2 6 17 8 35 6
21 -3 29 -1 24 7 -4 6 -2 11 3 11 6 0 11 5 11 10 0 17 -54 10 -74 -11z"/>
<path d="M3836 8755 c-8 -22 13 -60 26 -47 12 12 7 54 -8 59 -6 2 -14 -3 -18
-12z"/>
<path d="M5532 7710 c0 -14 2 -19 5 -12 2 6 2 18 0 25 -3 6 -5 1 -5 -13z"/>
<path d="M4814 7319 c-8 -14 11 -33 25 -25 6 4 11 11 11 16 0 13 -29 20 -36 9z"/>
<path d="M6152 7180 c-7 -11 -9 -20 -4 -20 10 0 32 22 32 32 0 15 -15 8 -28
-12z"/>
<path d="M6175 7150 c-3 -5 -2 -10 4 -10 5 0 13 5 16 10 3 6 2 10 -4 10 -5 0
-13 -4 -16 -10z"/>
<path d="M5950 7120 c20 -13 33 -13 25 0 -3 6 -14 10 -23 10 -15 0 -15 -2 -2
-10z"/>
<path d="M6475 6720 c-3 -6 1 -7 9 -4 18 7 21 14 7 14 -6 0 -13 -4 -16 -10z"/>
<path d="M6471 6664 c0 -11 3 -14 6 -6 3 7 2 16 -1 19 -3 4 -6 -2 -5 -13z"/>
<path d="M6402 6634 c-12 -8 -22 -21 -22 -27 -1 -20 -37 -57 -55 -57 -14 0
-16 -7 -10 -40 6 -36 5 -40 -14 -40 -14 0 -21 -6 -21 -20 0 -23 -15 -27 -24
-5 -6 16 -36 21 -36 6 0 -5 7 -14 15 -21 25 -20 17 -33 -15 -26 -23 4 -35 1
-47 -14 -10 -11 -26 -20 -36 -20 -14 0 -18 -5 -14 -20 3 -12 0 -20 -7 -20 -24
0 -74 -31 -90 -55 -9 -14 -23 -25 -31 -25 -28 0 -25 -20 6 -36 24 -12 37 -13
54 -6 13 6 28 7 36 1 8 -5 22 -6 32 -3 15 5 17 1 11 -22 -6 -23 -4 -26 12 -22
16 4 20 -1 22 -20 2 -27 30 -65 42 -57 4 2 17 -3 29 -11 18 -13 20 -18 9 -31
-11 -14 -10 -15 10 -9 13 5 22 3 22 -3 0 -6 14 -11 30 -11 20 0 39 -9 54 -25
21 -23 30 -25 100 -23 56 1 76 5 76 15 0 7 5 13 10 13 6 0 10 6 10 13 0 11 13
11 70 -2 62 -14 72 -19 85 -47 9 -20 25 -34 42 -39 27 -6 28 -7 8 -22 -14 -11
-16 -17 -7 -20 17 -7 15 -23 -3 -23 -8 0 -15 -4 -15 -10 0 -5 11 -10 24 -10
13 0 33 -3 43 -6 15 -5 15 -4 3 5 -13 9 -12 11 3 11 11 0 31 8 45 19 15 10 39
21 54 25 15 3 34 13 42 22 15 14 16 14 16 -1 0 -12 6 -16 20 -12 10 3 24 -1
31 -9 6 -8 15 -11 20 -8 5 3 9 -1 9 -9 0 -8 8 -23 18 -35 15 -17 24 -20 48
-13 19 5 28 14 27 25 -1 12 13 24 40 36 23 10 52 27 64 39 12 12 25 21 28 21
11 0 5 -29 -7 -33 -9 -4 -9 -6 -2 -6 7 -1 22 8 35 18 l24 20 -25 9 c-24 9 -24
10 18 22 23 7 42 18 42 23 0 6 10 1 23 -10 24 -22 67 -36 67 -23 0 5 7 15 15
23 12 13 10 15 -15 21 -41 8 -38 27 3 20 l32 -5 -25 15 c-14 8 -19 15 -11 16
8 0 11 3 7 7 -4 4 -24 7 -44 6 -26 -1 -29 0 -9 4 32 5 34 21 7 53 -11 12 -17
27 -14 31 3 5 -4 9 -15 9 -12 0 -21 -6 -21 -14 0 -8 -7 -17 -16 -20 -22 -8
-24 -8 -24 7 0 8 -11 19 -25 25 -34 16 -38 15 -31 -4 4 -11 2 -15 -8 -11 -10
4 -13 1 -10 -7 3 -8 1 -17 -5 -21 -6 -3 -11 -1 -11 5 0 6 -4 9 -10 5 -5 -3 -7
-12 -3 -20 3 -10 -2 -15 -16 -15 -12 0 -24 -7 -28 -16 -4 -11 -13 -13 -36 -8
-22 4 -28 3 -22 -6 5 -9 1 -10 -15 -5 -21 7 -93 12 -188 14 -20 1 -31 5 -27
11 3 6 -1 13 -9 16 -9 3 -16 12 -16 20 0 9 -11 13 -32 12 -38 -2 -64 8 -89 33
-11 11 -26 15 -40 12 -13 -4 -20 -2 -16 4 4 6 -22 10 -65 11 -40 1 -74 4 -76
7 -3 3 -10 0 -17 -5 -6 -5 -20 -11 -31 -13 -10 -2 -26 -7 -34 -10 -88 -38
-144 -45 -172 -23 -21 16 -41 65 -34 83 4 9 1 11 -6 7 -8 -5 -9 -2 -5 10 4 10
7 20 7 23 0 4 10 -2 22 -13 21 -18 21 -18 15 0 -4 10 -2 25 4 32 6 7 8 17 5
22 -8 13 32 42 49 36 8 -4 15 -2 15 4 0 10 12 12 92 11 37 0 49 4 58 20 5 11
10 24 9 28 -3 17 14 53 24 53 6 0 8 3 4 6 -3 3 -2 17 3 30 6 15 6 24 0 24 -18
0 -10 18 9 25 12 4 18 12 14 20 -3 8 -10 12 -16 8 -7 -4 -8 0 -4 12 4 9 2 24
-4 31 -14 17 -55 18 -65 3 -5 -8 -10 -6 -16 5 -11 20 -37 21 -66 0z m72 -156
c8 23 21 29 31 12 7 -12 -25 -59 -41 -60 -15 0 -27 47 -17 63 5 8 9 3 13 -13
l6 -25 8 23z m-284 -133 c0 -22 -2 -24 -14 -13 -10 9 -11 17 -4 26 15 17 18
15 18 -13z"/>
<path d="M7290 6628 c0 -9 -3 -25 -6 -35 -4 -11 -3 -14 3 -7 4 6 14 13 21 15
10 3 9 9 -2 24 -13 17 -15 18 -16 3z"/>
<path d="M7300 6577 c0 -5 14 -32 31 -60 17 -27 28 -58 26 -68 -5 -17 11 -29
38 -29 7 0 15 9 18 20 7 28 27 25 27 -5 0 -14 5 -25 11 -25 6 0 9 9 6 19 -3
12 1 22 9 25 22 8 16 26 -8 26 -22 1 -23 1 -4 15 11 8 17 16 13 16 -4 1 -11 3
-17 4 -5 1 -17 3 -27 4 -9 0 -13 4 -10 8 11 10 -13 33 -35 33 -10 0 -21 6 -24
14 -6 16 -54 19 -54 3z m98 -46 c3 -8 -1 -12 -9 -9 -7 2 -15 10 -17 17 -3 8 1
12 9 9 7 -2 15 -10 17 -17z"/>
<path d="M5832 6528 c3 -7 13 -15 24 -17 16 -3 17 -1 5 13 -16 19 -34 21 -29
4z"/>
<path d="M5890 6520 c19 -13 30 -13 30 0 0 6 -10 10 -22 10 -19 0 -20 -2 -8
-10z"/>
<path d="M7490 6406 c0 -2 7 -9 15 -16 12 -10 15 -10 15 4 0 9 -7 16 -15 16
-8 0 -15 -2 -15 -4z"/>
<path d="M7280 6210 c0 -5 5 -10 11 -10 5 0 7 5 4 10 -3 6 -8 10 -11 10 -2 0
-4 -4 -4 -10z"/>
<path d="M5951 6186 c-6 -8 -10 -20 -9 -27 2 -8 -8 -15 -22 -17 -13 -2 -31
-13 -39 -24 -7 -11 -28 -26 -45 -34 -18 -8 -24 -13 -13 -14 9 0 17 -3 17 -7 0
-10 -49 -33 -68 -33 -10 0 -13 -7 -9 -22 4 -13 0 -29 -9 -39 -19 -22 -15 -53
9 -57 12 -2 15 1 11 12 -4 9 -1 16 6 16 8 0 10 8 7 21 -4 15 -2 19 9 15 16 -6
54 22 54 40 0 12 24 41 108 131 23 25 42 47 42 49 0 10 -39 2 -49 -10z"/>
<path d="M6260 6000 c0 -5 5 -10 11 -10 5 0 7 5 4 10 -3 6 -8 10 -11 10 -2 0
-4 -4 -4 -10z"/>
<path d="M5700 5874 c0 -8 5 -12 10 -9 6 3 10 10 10 16 0 5 -4 9 -10 9 -5 0
-10 -7 -10 -16z"/>
<path d="M5601 5769 c-21 -32 -42 -54 -61 -61 -17 -5 -30 -14 -30 -19 0 -5 -8
-9 -17 -9 -10 -1 -36 -19 -58 -40 -22 -22 -44 -40 -48 -40 -14 0 -37 -28 -37
-45 0 -8 -12 -20 -26 -25 -14 -6 -22 -14 -19 -20 9 -14 -17 -80 -28 -73 -5 3
-6 -11 -2 -36 4 -27 3 -41 -4 -41 -15 0 -14 -26 2 -50 9 -15 9 -23 1 -28 -14
-9 -3 -42 20 -61 9 -7 16 -12 17 -10 0 2 2 29 4 59 4 61 25 118 61 165 13 18
24 39 24 48 0 10 4 17 9 17 5 0 11 9 14 21 3 12 10 18 16 15 11 -7 24 11 26
35 1 9 14 28 28 41 15 14 27 29 27 34 0 5 14 20 30 33 16 13 27 27 24 32 -3 5
2 9 10 9 9 0 16 4 16 9 0 5 9 13 20 16 11 4 17 11 14 17 -3 5 3 16 15 24 26
19 27 34 2 34 -12 0 -31 -18 -50 -51z"/>
<path d="M7666 5474 c-16 -41 4 -204 25 -204 14 0 20 18 25 77 3 32 7 61 10
64 2 4 0 10 -6 14 -5 3 -10 15 -10 25 0 26 -36 46 -44 24z"/>
<path d="M4648 5433 c6 -2 18 -2 25 0 6 3 1 5 -13 5 -14 0 -19 -2 -12 -5z"/>
<path d="M6492 5430 c-29 -4 -59 -13 -67 -20 -8 -6 -19 -9 -24 -6 -5 4 -29 1
-53 -5 -24 -6 -51 -10 -60 -10 -10 0 -20 -4 -23 -9 -3 -5 -11 -7 -18 -4 -8 3
-27 -2 -43 -11 -16 -8 -52 -15 -81 -15 -28 0 -55 -4 -58 -10 -3 -5 -24 -9 -45
-8 -21 1 -46 -5 -55 -12 -13 -11 -18 -11 -25 -1 -5 9 -10 10 -14 2 -11 -17
-27 -13 -24 6 2 11 -7 19 -25 24 -37 10 -109 1 -119 -14 -6 -9 -10 -9 -15 -1
-5 6 -50 14 -100 17 -90 6 -94 6 -120 -19 -16 -15 -38 -30 -50 -35 -29 -11
-29 -27 0 -63 20 -25 31 -29 74 -30 28 -1 49 -4 47 -7 -9 -16 61 -45 98 -40 9
1 19 -3 23 -9 3 -5 15 -10 26 -10 10 0 19 -4 19 -10 0 -5 5 -10 11 -10 8 0 7
5 -1 15 -20 25 -7 26 38 5 22 -11 48 -20 57 -20 20 0 19 26 -2 34 -13 5 -14 9
-4 19 10 9 17 6 33 -16 11 -15 24 -25 29 -21 5 3 9 1 9 -5 0 -5 -6 -12 -12
-15 -7 -4 -3 -4 10 -2 15 3 26 -2 32 -15 6 -10 17 -16 25 -13 9 4 15 0 15 -9
0 -8 7 -17 15 -21 8 -3 15 -12 15 -20 0 -19 14 -28 34 -20 10 4 14 15 12 32
-2 15 -1 18 1 8 4 -16 7 -17 14 -5 6 10 9 10 9 2 0 -8 13 -13 29 -13 16 0 31
-3 33 -7 6 -14 90 -53 99 -47 6 3 16 0 24 -6 8 -7 21 -10 29 -7 8 3 29 -1 45
-9 17 -9 35 -13 40 -10 5 3 12 -1 15 -10 4 -10 13 -14 22 -10 18 7 54 -10 54
-25 0 -6 -5 -7 -12 -3 -7 5 -9 0 -6 -14 4 -13 -1 -27 -13 -38 -10 -9 -16 -21
-13 -25 10 -16 -6 -47 -28 -52 -18 -5 -19 -8 -8 -22 10 -12 10 -19 2 -27 -9
-9 -12 -9 -12 1 0 7 -5 9 -10 6 -12 -7 54 -55 75 -55 8 0 15 -4 15 -9 0 -5 10
-11 23 -13 12 -2 21 -9 20 -16 -4 -17 14 -15 21 3 6 17 76 21 92 5 7 -7 24 -6
53 5 24 8 56 15 72 15 22 0 100 23 117 35 8 6 -24 67 -40 76 -17 9 -18 13 -7
20 12 8 12 11 -1 19 -8 5 -21 8 -27 5 -7 -2 -13 2 -13 10 0 9 6 12 16 8 10 -4
17 1 21 16 3 11 9 21 13 21 5 0 10 10 12 23 3 22 23 28 95 27 12 0 31 12 42
26 16 20 24 23 39 15 13 -7 22 -7 30 1 8 8 16 7 28 -3 13 -11 18 -11 21 -1 3
6 12 12 20 12 10 0 13 -6 9 -16 -5 -13 -2 -15 16 -10 13 3 29 6 36 6 6 0 12 6
12 13 1 15 127 97 152 97 10 0 18 -7 18 -15 0 -8 7 -15 15 -15 10 0 15 10 15
29 0 31 14 49 25 32 7 -12 37 -2 48 16 11 18 28 17 21 -2 -4 -9 0 -15 10 -15
9 0 16 -6 16 -12 1 -19 29 34 30 55 0 10 8 17 20 17 13 0 20 7 20 20 0 14 5
18 17 13 13 -5 15 -2 11 15 -4 12 -2 22 3 22 16 0 10 29 -9 39 -9 5 -48 8 -86
6 -46 -3 -79 1 -96 10 -15 8 -30 11 -34 8 -12 -12 -84 20 -94 42 -8 17 -26 25
-93 38 -46 10 -86 22 -90 28 -11 18 -163 14 -257 -6 -68 -15 -91 -16 -135 -7
-28 6 -69 14 -90 17 -21 3 -41 13 -44 21 -6 15 -19 16 -101 4z m1043 -170 c-3
-5 -12 -7 -20 -3 -21 7 -19 13 6 13 11 0 18 -4 14 -10z m-1061 -176 c22 -22
21 -48 -1 -39 -10 4 -31 10 -46 14 -15 3 -28 9 -28 14 1 4 1 12 1 17 0 16 57
12 74 -6z m136 -29 c0 -8 -4 -15 -10 -15 -5 0 -10 7 -10 15 0 8 5 15 10 15 6
0 10 -7 10 -15z m-20 -165 c0 -5 -5 -10 -11 -10 -5 0 -7 5 -4 10 3 6 8 10 11
10 2 0 4 -4 4 -10z m124 -14 c8 -14 8 -20 -1 -23 -7 -3 -13 -11 -13 -19 0 -9
-11 -14 -30 -14 -16 0 -30 -4 -30 -10 0 -17 -19 -11 -30 10 -10 19 0 59 14 53
15 -7 25 -2 21 10 -9 21 56 15 69 -7z"/>
<path d="M6685 4870 c3 -5 10 -10 16 -10 5 0 9 5 9 10 0 6 -7 10 -16 10 -8 0
-12 -4 -9 -10z"/>
<path d="M5860 5375 c0 -8 7 -15 15 -15 9 0 12 6 9 15 -4 8 -10 15 -15 15 -5
0 -9 -7 -9 -15z"/>
<path d="M4641 5353 c0 -25 1 -26 9 -8 12 27 12 35 0 35 -5 0 -10 -12 -9 -27z"/>
<path d="M5725 5370 c-4 -6 3 -10 14 -10 25 0 27 6 6 13 -8 4 -17 2 -20 -3z"/>
<path d="M4661 5294 c0 -11 3 -14 6 -6 3 7 2 16 -1 19 -3 4 -6 -2 -5 -13z"/>
<path d="M5300 5124 c0 -8 5 -12 10 -9 6 3 10 10 10 16 0 5 -4 9 -10 9 -5 0
-10 -7 -10 -16z"/>
<path d="M4741 4854 c0 -11 3 -14 6 -6 3 7 2 16 -1 19 -3 4 -6 -2 -5 -13z"/>
<path d="M6920 4700 c0 -5 5 -10 10 -10 6 0 10 5 10 10 0 6 -4 10 -10 10 -5 0
-10 -4 -10 -10z"/>
<path d="M5000 4300 c0 -19 11 -26 23 -14 8 8 -3 34 -14 34 -5 0 -9 -9 -9 -20z"/>
<path d="M6745 3780 c-3 -5 -2 -10 4 -10 5 0 13 5 16 10 3 6 2 10 -4 10 -5 0
-13 -4 -16 -10z"/>
<path d="M7810 6958 c0 -19 2 -20 10 -8 13 19 13 30 0 30 -5 0 -10 -10 -10
-22z"/>
<path d="M7862 6900 c0 -14 2 -19 5 -12 2 6 2 18 0 25 -3 6 -5 1 -5 -13z"/>
<path d="M7510 6899 c0 -5 5 -7 10 -4 6 3 10 8 10 11 0 2 -4 4 -10 4 -5 0 -10
-5 -10 -11z"/>
<path d="M3180 6175 c0 -14 5 -25 10 -25 6 0 10 11 10 25 0 14 -4 25 -10 25
-5 0 -10 -11 -10 -25z"/>
<path d="M3154 6051 c2 -22 7 -45 11 -51 4 -6 1 -17 -5 -25 -9 -11 -9 -15 -1
-15 12 0 13 1 14 72 1 32 -4 53 -11 56 -8 2 -11 -9 -8 -37z"/>
<path d="M9010 4360 c0 -5 5 -10 11 -10 5 0 7 5 4 10 -3 6 -8 10 -11 10 -2 0
-4 -4 -4 -10z"/>
<path d="M6465 3320 c3 -5 8 -10 11 -10 2 0 4 5 4 10 0 6 -5 10 -11 10 -5 0
-7 -4 -4 -10z"/>
<path d="M6400 3229 c0 -29 2 -30 18 -18 36 29 37 49 1 49 -15 0 -19 -7 -19
-31z"/>
<path d="M5158 3233 c7 -3 16 -2 19 1 4 3 -2 6 -13 5 -11 0 -14 -3 -6 -6z"/>
<path d="M6551 3004 c0 -11 3 -14 6 -6 3 7 2 16 -1 19 -3 4 -6 -2 -5 -13z"/>
<path d="M6585 2990 c4 -6 11 -8 16 -5 14 9 11 15 -7 15 -8 0 -12 -5 -9 -10z"/>
<path d="M6560 2950 c0 -12 8 -12 35 0 18 8 17 9 -7 9 -16 1 -28 -3 -28 -9z"/>
<path d="M4560 1425 c0 -9 5 -15 11 -13 6 2 11 8 11 13 0 5 -5 11 -11 13 -6 2
-11 -4 -11 -13z"/>
<path d="M6385 1350 c3 -5 8 -10 11 -10 2 0 4 5 4 10 0 6 -5 10 -11 10 -5 0
-7 -4 -4 -10z"/>
<path d="M6336 1304 c-4 -9 -4 -19 -2 -21 8 -8 26 8 26 23 0 19 -16 18 -24 -2z"/>
<path d="M8438 2905 c-2 -19 1 -44 8 -56 10 -20 12 -19 21 19 6 24 7 46 1 56
-14 26 -25 19 -30 -19z"/>
<path d="M8561 2744 c0 -11 3 -14 6 -6 3 7 2 16 -1 19 -3 4 -6 -2 -5 -13z"/>
<path d="M7900 2090 c0 -5 5 -10 10 -10 6 0 10 5 10 10 0 6 -4 10 -10 10 -5 0
-10 -4 -10 -10z"/>
<path d="M8240 2085 c0 -8 4 -15 10 -15 5 0 7 7 4 15 -4 8 -8 15 -10 15 -2 0
-4 -7 -4 -15z"/>
<path d="M8080 2080 c0 -5 7 -10 15 -10 9 0 29 -10 45 -21 16 -13 36 -19 45
-15 22 8 9 26 -19 26 -13 0 -29 7 -36 15 -14 17 -50 20 -50 5z"/>
<path d="M7240 1830 c0 -5 5 -10 10 -10 6 0 10 5 10 10 0 6 -4 10 -10 10 -5 0
-10 -4 -10 -10z"/>
<path d="M5220 680 c0 -5 5 -10 10 -10 6 0 10 5 10 10 0 6 -4 10 -10 10 -5 0
-10 -4 -10 -10z"/>
<path d="M3848 553 c7 -3 16 -2 19 1 4 3 -2 6 -13 5 -11 0 -14 -3 -6 -6z"/>
<path d="M6675 10980 c3 -5 8 -10 11 -10 2 0 4 5 4 10 0 6 -5 10 -11 10 -5 0
-7 -4 -4 -10z"/>
<path d="M8260 10003 c0 -5 10 -19 21 -33 l20 -25 -16 33 c-15 30 -25 41 -25
25z"/>
<path d="M4230 9895 c-7 -9 -10 -18 -7 -21 3 -3 10 4 17 15 13 25 8 27 -10 6z"/>
<path d="M4195 9839 c-4 -6 -5 -12 -2 -15 2 -3 7 2 10 11 7 17 1 20 -8 4z"/>
<path d="M3771 9360 c-24 -46 -26 -54 -10 -44 13 8 42 74 36 81 -3 2 -14 -14
-26 -37z"/>
<path d="M3736 9291 c-4 -7 -5 -15 -2 -18 9 -9 19 4 14 18 -4 11 -6 11 -12 0z"/>
<path d="M8945 8770 c-3 -5 -1 -10 4 -10 6 0 11 5 11 10 0 6 -2 10 -4 10 -3 0
-8 -4 -11 -10z"/>
<path d="M9000 8740 c0 -5 5 -10 11 -10 5 0 7 5 4 10 -3 6 -8 10 -11 10 -2 0
-4 -4 -4 -10z"/>
<path d="M9011 8704 c0 -11 3 -14 6 -6 3 7 2 16 -1 19 -3 4 -6 -2 -5 -13z"/>
<path d="M9300 7596 c0 -8 5 -18 10 -21 6 -3 10 1 10 9 0 8 -4 18 -10 21 -5 3
-10 -1 -10 -9z"/>
<path d="M9330 7546 c0 -8 5 -18 10 -21 6 -3 10 3 10 14 0 12 -4 21 -10 21 -5
0 -10 -6 -10 -14z"/>
<path d="M9420 7474 c0 -8 5 -12 10 -9 6 3 10 10 10 16 0 5 -4 9 -10 9 -5 0
-10 -7 -10 -16z"/>
<path d="M9430 7440 c-13 -8 -13 -10 2 -10 9 0 26 -12 37 -27 24 -33 29 -10 5
25 -17 25 -22 26 -44 12z"/>
<path d="M9410 7396 c0 -2 7 -19 15 -37 11 -27 14 -29 15 -12 0 28 -10 53 -21
53 -5 0 -9 -2 -9 -4z"/>
<path d="M9420 7243 c0 -25 15 -38 25 -22 4 6 0 18 -9 27 -15 15 -16 15 -16
-5z"/>
<path d="M9430 7188 c0 -7 5 -20 10 -28 8 -12 10 -9 10 13 0 15 -4 27 -10 27
-5 0 -10 -6 -10 -12z"/>
<path d="M9584 7135 c4 -22 10 -66 13 -98 6 -60 23 -89 23 -40 0 49 -21 158
-32 168 -7 7 -9 -2 -4 -30z"/>
<path d="M9660 7125 c-1 -5 -1 -14 0 -20 2 -5 6 -26 9 -45 5 -27 8 -30 12 -15
3 11 0 36 -7 55 -7 19 -13 31 -14 25z"/>
<path d="M9440 7055 c0 -8 5 -15 10 -15 6 0 10 7 10 15 0 8 -4 15 -10 15 -5 0
-10 -7 -10 -15z"/>
<path d="M9370 6924 c0 -8 5 -12 10 -9 6 3 10 10 10 16 0 5 -4 9 -10 9 -5 0
-10 -7 -10 -16z"/>
<path d="M9610 6925 c0 -8 5 -15 10 -15 6 0 10 7 10 15 0 8 -4 15 -10 15 -5 0
-10 -7 -10 -15z"/>
<path d="M9606 6877 c3 -10 9 -15 12 -12 3 3 0 11 -7 18 -10 9 -11 8 -5 -6z"/>
<path d="M9495 5690 c-3 -5 -1 -10 4 -10 6 0 11 5 11 10 0 6 -2 10 -4 10 -3 0
-8 -4 -11 -10z"/>
<path d="M9540 5644 c0 -8 5 -12 10 -9 6 4 8 11 5 16 -9 14 -15 11 -15 -7z"/>
<path d="M9457 5373 c-5 -11 0 -103 6 -110 8 -7 -3 -34 -30 -69 -25 -34 -28
-44 -13 -44 6 0 10 6 10 13 0 7 10 17 22 22 13 6 25 19 27 30 2 11 10 24 18
28 16 10 9 42 -14 66 -8 8 -13 25 -10 38 4 23 -7 41 -16 26z"/>
<path d="M9385 5090 c-3 -5 1 -10 9 -10 9 0 16 5 16 10 0 6 -4 10 -9 10 -6 0
-13 -4 -16 -10z"/>
<path d="M9365 5050 c-3 -6 0 -10 9 -10 8 0 16 -5 18 -11 3 -9 10 -9 27 0 12
7 21 14 19 15 -11 10 -68 14 -73 6z"/>
<path d="M9460 5040 c-12 -8 -11 -10 8 -10 12 0 22 5 22 10 0 13 -11 13 -30 0z"/>
<path d="M9250 4959 c0 -5 5 -7 10 -4 6 3 10 8 10 11 0 2 -4 4 -10 4 -5 0 -10
-5 -10 -11z"/>
<path d="M9210 4888 c-23 -38 -14 -60 12 -29 16 21 25 61 13 61 -3 0 -14 -14
-25 -32z"/>
<path d="M3480 4294 c0 -21 4 -33 10 -29 6 3 10 19 10 36 0 16 -4 29 -10 29
-5 0 -10 -16 -10 -36z"/>
<path d="M9145 4250 c10 -11 26 -20 35 -20 21 0 76 -51 85 -80 7 -22 35 -24
42 -4 2 7 -21 38 -51 70 -38 40 -55 53 -56 42 0 -22 -10 -23 -36 -3 -28 21
-40 18 -19 -5z"/>
<path d="M3472 4200 c0 -14 2 -19 5 -12 2 6 2 18 0 25 -3 6 -5 1 -5 -13z"/>
<path d="M9340 4118 c11 -12 22 -19 25 -16 7 7 -23 38 -36 38 -5 0 -1 -10 11
-22z"/>
<path d="M9315 4100 c3 -5 8 -10 11 -10 2 0 4 5 4 10 0 6 -5 10 -11 10 -5 0
-7 -4 -4 -10z"/>
<path d="M3615 4028 c9 -44 40 -114 54 -122 6 -4 11 -4 11 0 0 9 -31 105 -43
132 -15 33 -30 27 -22 -10z"/>
<path d="M9603 3940 c1 -18 7 -26 20 -26 15 0 16 2 4 11 -7 5 -16 17 -20 25
-3 8 -5 4 -4 -10z"/>
<path d="M3714 3838 c9 -13 24 -38 33 -55 9 -18 23 -33 30 -33 21 0 15 16 -22
56 -19 20 -35 41 -35 45 0 5 -5 9 -11 9 -7 0 -5 -9 5 -22z"/>
<path d="M3810 3717 c0 -4 9 -16 20 -27 11 -11 20 -16 20 -12 0 5 -9 17 -20
27 -11 10 -20 15 -20 12z"/>
<path d="M9965 3380 c3 -5 11 -10 16 -10 6 0 7 5 4 10 -3 6 -11 10 -16 10 -6
0 -7 -4 -4 -10z"/>
<path d="M9890 3331 c0 -5 8 -19 18 -32 10 -13 22 -33 26 -44 6 -13 10 -16 13
-7 7 17 -23 78 -42 86 -8 3 -15 2 -15 -3z"/>
<path d="M9992 3275 c0 -16 2 -22 5 -12 2 9 2 23 0 30 -3 6 -5 -1 -5 -18z"/>
<path d="M9800 3280 c0 -5 7 -10 16 -10 8 0 12 5 9 10 -3 6 -10 10 -16 10 -5
0 -9 -4 -9 -10z"/>
<path d="M9740 3020 c0 -6 7 -10 15 -10 8 0 15 2 15 4 0 2 -7 6 -15 10 -8 3
-15 1 -15 -4z"/>
<path d="M4321 2784 c0 -11 3 -14 6 -6 3 7 2 16 -1 19 -3 4 -6 -2 -5 -13z"/>
<path d="M3920 2435 c0 -8 9 -15 19 -15 11 0 23 -4 26 -10 11 -17 35 -11 35 9
0 11 -9 21 -22 25 -38 10 -58 7 -58 -9z"/>
<path d="M4020 2430 c0 -5 6 -10 14 -10 8 0 18 5 21 10 3 6 -3 10 -14 10 -12
0 -21 -4 -21 -10z"/>
<path d="M3920 2191 c0 -5 9 -11 20 -14 13 -3 20 0 20 9 0 8 -9 14 -20 14 -11
0 -20 -4 -20 -9z"/>
<path d="M3700 1930 c0 -5 5 -10 10 -10 6 0 10 5 10 10 0 6 -4 10 -10 10 -5 0
-10 -4 -10 -10z"/>
<path d="M2800 1720 c0 -22 16 -26 40 -10 13 9 13 11 0 20 -24 16 -40 12 -40
-10z"/>
</g>
</svg>
